<svg width="31" height="33" viewBox="0 0 31 33" fill="none" xmlns="http://www.w3.org/2000/svg">
<path d="M17.565 3.66522C23.2199 3.66522 27.8261 8.53494 27.8261 14.5133C27.8261 20.4917 23.2199 25.3615 17.565 25.3615C15.1059 25.3615 12.8476 24.4383 11.0776 22.9058L4.951 29.3829C4.85645 29.487 4.7432 29.5701 4.61788 29.6274C4.49256 29.6847 4.35769 29.7149 4.22118 29.7164C4.08466 29.7178 3.94924 29.6905 3.82285 29.636C3.69645 29.5814 3.58162 29.5007 3.48509 29.3987C3.38855 29.2966 3.31225 29.1752 3.26065 29.0416C3.20905 28.908 3.18318 28.7648 3.18457 28.6205C3.18596 28.4762 3.21457 28.3336 3.26874 28.2011C3.3229 28.0686 3.40153 27.9489 3.50001 27.8489L9.62663 21.3718C8.17709 19.5006 7.30385 17.1131 7.30385 14.5133C7.30385 8.53494 11.9101 3.66522 17.565 3.66522ZM17.565 5.83485C13.0192 5.83485 9.35608 9.70749 9.35608 14.5133C9.35608 19.3192 13.0192 23.1918 17.565 23.1918C22.1108 23.1918 25.7739 19.3192 25.7739 14.5133C25.7739 9.70749 22.1108 5.83485 17.565 5.83485Z" fill="white"/>
</svg>
