<svg width="637" height="627" viewBox="0 0 637 627" fill="none" xmlns="http://www.w3.org/2000/svg">
<path d="M439.658 127.908C439.658 127.908 364.97 87.4915 279.304 118.189C193.638 148.887 138.973 228.817 92.9651 292.495C46.9571 356.174 53.9426 429.758 107.869 471.667C161.796 513.576 210.642 472.921 294.623 484.37C378.604 495.819 399.041 511.068 476.439 476.846C553.836 442.624 585.38 336.799 544.738 248.004C504.095 159.208 439.658 127.908 439.658 127.908Z" fill="#AF92EE"/>
<path opacity="0.8" d="M439.658 127.908C439.658 127.908 364.97 87.4915 279.304 118.189C193.638 148.887 138.973 228.817 92.9651 292.495C46.9571 356.174 53.9426 429.758 107.869 471.667C161.796 513.576 210.642 472.921 294.623 484.37C378.604 495.819 399.041 511.068 476.439 476.846C553.836 442.624 585.38 336.799 544.738 248.004C504.095 159.208 439.658 127.908 439.658 127.908Z" fill="white"/>
<path d="M507.62 240.404C501.231 237.031 498.328 239.84 495.956 237.031C493.585 234.222 502.346 226.911 484.914 219.6C484.914 219.6 483.761 203.863 459.94 203.298C436.12 202.734 442.6 219.049 436.12 222.974C429.64 226.899 427.981 220.729 421.592 224.667C415.203 228.604 418.106 236.467 412.883 237.595C407.66 238.724 400.687 232.579 394.298 236.467C387.909 240.354 387.909 243.778 384.993 243.778C382.077 243.778 376.284 241.533 372.797 243.778C369.311 246.022 365.242 248.794 365.242 248.794H512.273C512.273 248.794 514.023 243.778 507.62 240.404Z" fill="#AF92EE"/>
<path opacity="0.5" d="M507.62 240.404C501.231 237.031 498.328 239.84 495.956 237.031C493.585 234.222 502.346 226.911 484.914 219.6C484.914 219.6 483.761 203.863 459.94 203.298C436.12 202.734 442.6 219.049 436.12 222.974C429.64 226.899 427.981 220.729 421.592 224.667C415.203 228.604 418.106 236.467 412.883 237.595C407.66 238.724 400.687 232.579 394.298 236.467C387.909 240.354 387.909 243.778 384.993 243.778C382.077 243.778 376.284 241.533 372.797 243.778C369.311 246.022 365.242 248.794 365.242 248.794H512.273C512.273 248.794 514.023 243.778 507.62 240.404Z" fill="#AF92EE"/>
<path d="M285.097 168.5C281.313 166.506 279.589 168.174 278.215 166.506C276.842 164.838 282 160.512 271.735 156.173C271.735 156.173 271.048 146.843 256.935 146.517C242.822 146.191 246.567 155.847 242.822 158.18C239.076 160.512 238 156.85 234.203 159.17C230.406 161.49 232.142 166.168 229.019 166.845C225.896 167.522 221.787 163.835 218.003 166.168C214.219 168.5 214.219 170.506 212.495 170.506C210.771 170.506 207.311 169.165 205.263 170.506C203.216 171.848 200.792 173.503 200.792 173.503H287.858C287.858 173.503 288.894 170.544 285.097 168.5Z" fill="#AF92EE"/>
<path opacity="0.5" d="M285.097 168.5C281.313 166.506 279.589 168.174 278.215 166.506C276.842 164.838 282 160.512 271.735 156.173C271.735 156.173 271.048 146.843 256.935 146.517C242.822 146.191 246.567 155.847 242.822 158.18C239.076 160.512 238 156.85 234.203 159.17C230.406 161.49 232.142 166.168 229.019 166.845C225.896 167.522 221.787 163.835 218.003 166.168C214.219 168.5 214.219 170.506 212.495 170.506C210.771 170.506 207.311 169.165 205.263 170.506C203.216 171.848 200.792 173.503 200.792 173.503H287.858C287.858 173.503 288.894 170.544 285.097 168.5Z" fill="#AF92EE"/>
<path d="M338.194 446.299C327.308 440.543 322.357 445.333 318.391 440.543C314.426 435.753 329.278 423.313 299.586 410.861C299.586 410.861 297.604 384.038 257.026 383.085C216.448 382.131 227.321 409.895 216.435 416.604C205.549 423.313 202.581 412.767 191.694 419.476C180.808 426.185 185.746 439.54 176.842 441.508C167.939 443.477 156.106 432.881 145.168 439.59C134.23 446.299 134.282 452.042 129.331 452.042C124.38 452.042 114.479 448.205 108.595 452.042C102.711 455.879 95.7256 460.657 95.7256 460.657H346.113C346.113 460.657 349.081 452.042 338.194 446.299Z" fill="#AF92EE"/>
<path opacity="0.5" d="M338.194 446.299C327.308 440.543 322.357 445.333 318.391 440.543C314.426 435.753 329.278 423.313 299.586 410.861C299.586 410.861 297.604 384.038 257.026 383.085C216.448 382.131 227.321 409.895 216.435 416.604C205.549 423.313 202.581 412.767 191.694 419.476C180.808 426.185 185.746 439.54 176.842 441.508C167.939 443.477 156.106 432.881 145.168 439.59C134.23 446.299 134.282 452.042 129.331 452.042C124.38 452.042 114.479 448.205 108.595 452.042C102.711 455.879 95.7256 460.657 95.7256 460.657H346.113C346.113 460.657 349.081 452.042 338.194 446.299Z" fill="#AF92EE"/>
<g opacity="0.5">
<path d="M507.62 240.404C501.231 237.031 498.328 239.84 495.956 237.031C493.585 234.222 502.346 226.911 484.914 219.6C484.914 219.6 483.761 203.863 459.94 203.298C436.12 202.734 442.6 219.049 436.12 222.974C429.64 226.899 427.981 220.729 421.592 224.667C415.203 228.604 418.106 236.467 412.883 237.595C407.66 238.724 400.687 232.579 394.298 236.467C387.909 240.354 387.909 243.778 384.993 243.778C382.077 243.778 376.284 241.533 372.797 243.778C369.311 246.022 365.242 248.794 365.242 248.794H512.273C512.273 248.794 514.023 243.778 507.62 240.404Z" fill="white"/>
<path opacity="0.5" d="M507.62 240.404C501.231 237.031 498.328 239.84 495.956 237.031C493.585 234.222 502.346 226.911 484.914 219.6C484.914 219.6 483.761 203.863 459.94 203.298C436.12 202.734 442.6 219.049 436.12 222.974C429.64 226.899 427.981 220.729 421.592 224.667C415.203 228.604 418.106 236.467 412.883 237.595C407.66 238.724 400.687 232.579 394.298 236.467C387.909 240.354 387.909 243.778 384.993 243.778C382.077 243.778 376.284 241.533 372.797 243.778C369.311 246.022 365.242 248.794 365.242 248.794H512.273C512.273 248.794 514.023 243.778 507.62 240.404Z" fill="white"/>
</g>
<g opacity="0.5">
<path d="M285.097 168.5C281.313 166.506 279.589 168.174 278.215 166.506C276.842 164.838 282 160.512 271.735 156.173C271.735 156.173 271.048 146.843 256.935 146.517C242.822 146.191 246.567 155.847 242.822 158.18C239.076 160.512 238 156.85 234.203 159.17C230.406 161.49 232.142 166.168 229.019 166.845C225.896 167.522 221.787 163.835 218.003 166.168C214.219 168.5 214.219 170.506 212.495 170.506C210.771 170.506 207.311 169.165 205.263 170.506C203.216 171.848 200.792 173.503 200.792 173.503H287.858C287.858 173.503 288.894 170.544 285.097 168.5Z" fill="white"/>
<path opacity="0.5" d="M285.097 168.5C281.313 166.506 279.589 168.174 278.215 166.506C276.842 164.838 282 160.512 271.735 156.173C271.735 156.173 271.048 146.843 256.935 146.517C242.822 146.191 246.567 155.847 242.822 158.18C239.076 160.512 238 156.85 234.203 159.17C230.406 161.49 232.142 166.168 229.019 166.845C225.896 167.522 221.787 163.835 218.003 166.168C214.219 168.5 214.219 170.506 212.495 170.506C210.771 170.506 207.311 169.165 205.263 170.506C203.216 171.848 200.792 173.503 200.792 173.503H287.858C287.858 173.503 288.894 170.544 285.097 168.5Z" fill="white"/>
</g>
<g opacity="0.5">
<path d="M338.194 446.299C327.308 440.543 322.357 445.333 318.391 440.543C314.426 435.753 329.278 423.313 299.586 410.861C299.586 410.861 297.604 384.038 257.026 383.085C216.448 382.131 227.321 409.895 216.435 416.604C205.549 423.313 202.581 412.767 191.694 419.476C180.808 426.185 185.746 439.54 176.842 441.508C167.939 443.477 156.106 432.881 145.168 439.59C134.23 446.299 134.282 452.042 129.331 452.042C124.38 452.042 114.479 448.205 108.595 452.042C102.711 455.879 95.7256 460.657 95.7256 460.657H346.113C346.113 460.657 349.081 452.042 338.194 446.299Z" fill="white"/>
<path opacity="0.5" d="M338.194 446.299C327.308 440.543 322.357 445.333 318.391 440.543C314.426 435.753 329.278 423.313 299.586 410.861C299.586 410.861 297.604 384.038 257.026 383.085C216.448 382.131 227.321 409.895 216.435 416.604C205.549 423.313 202.581 412.767 191.694 419.476C180.808 426.185 185.746 439.54 176.842 441.508C167.939 443.477 156.106 432.881 145.168 439.59C134.23 446.299 134.282 452.042 129.331 452.042C124.38 452.042 114.479 448.205 108.595 452.042C102.711 455.879 95.7256 460.657 95.7256 460.657H346.113C346.113 460.657 349.081 452.042 338.194 446.299Z" fill="white"/>
</g>
<path d="M155.238 405.456C155.238 405.456 148.836 400.026 142.213 398.17C135.591 396.314 127.957 396.277 121.36 394.533C114.764 392.79 110.824 391.323 110.824 391.323L110.487 397.092L154.966 408.716L185.396 400.565L188.429 394.584C185.113 396.077 181.635 397.209 178.061 397.957C171.438 399.474 164.025 399.474 159.917 401.004C155.808 402.534 155.238 405.456 155.238 405.456Z" fill="white" stroke="#263238" stroke-linecap="round" stroke-linejoin="round"/>
<path d="M109.865 392.627C118.56 395.2 127.472 397.026 136.498 398.082C143.287 398.974 149.733 401.51 155.238 405.456C159.716 402.686 164.871 401.112 170.181 400.891C176.567 400.423 182.868 399.18 188.934 397.192L187.029 400.954L154.344 407.149L109.191 395.737L109.865 392.627Z" fill="white" stroke="#263238" stroke-linecap="round" stroke-linejoin="round"/>
<path d="M108.634 393.932C115.542 396.493 122.781 398.126 130.148 398.785C142.174 399.662 154.901 405.456 154.901 405.456C159.824 403.054 165.228 401.719 170.738 401.543C176.922 401.492 183.075 400.687 189.051 399.148C188.865 399.749 188.818 400.382 188.914 401.002C189.011 401.622 189.247 402.214 189.608 402.735L154.784 409.908L108.401 396.866L108.634 393.932Z" fill="white" stroke="#263238" stroke-linecap="round" stroke-linejoin="round"/>
<path d="M108.064 396.327L153.333 407.299V408.804L157.143 408.904V407.174L190.619 402.057C190.619 402.057 192.083 401.731 190.839 403.311C189.595 404.891 168.042 423.1 168.042 423.1L144.118 425.482L107.83 417.77L108.064 396.327Z" fill="#AF92EE"/>
<mask id="mask0_78_209" style="mask-type:luminance" maskUnits="userSpaceOnUse" x="107" y="396" width="85" height="30">
<path d="M108.064 396.327L153.333 407.299V408.804L157.143 408.904V407.174L190.619 402.057C190.619 402.057 192.083 401.731 190.839 403.311C189.595 404.891 168.042 423.1 168.042 423.1L144.118 425.482L107.83 417.77L108.064 396.327Z" fill="white"/>
</mask>
<g mask="url(#mask0_78_209)">
<path opacity="0.3" d="M153.333 408.829V407.299L108.064 396.327L107.843 417.845L144.118 425.557L144.766 425.495L154.344 408.854L153.333 408.829Z" fill="black"/>
</g>
<path d="M108.064 396.327L153.333 407.299V408.804L157.143 408.904V407.174L190.619 402.057C190.619 402.057 192.083 401.731 190.839 403.311C189.595 404.891 168.042 423.1 168.042 423.1L144.118 425.482L107.83 417.77L108.064 396.327Z" stroke="#263238" stroke-linecap="round" stroke-linejoin="round"/>
<path d="M153.333 408.829L143.328 425.557L145.246 425.67L157.143 408.929L153.333 408.829Z" fill="#AF92EE" stroke="#263238" stroke-linecap="round" stroke-linejoin="round"/>
<path d="M151.726 510.817C151.726 510.817 149.549 515.231 146.646 517.25C143.743 519.269 140.036 520.222 137.107 522.166C135.516 523.207 133.993 524.342 132.545 525.564L131.379 521.727L151 508.647L167.265 510.554L169.779 514.215C167.962 513.62 166.07 513.265 164.154 513.162C160.668 512.924 157.052 513.801 154.759 513.262C154.098 513.097 153.483 512.792 152.958 512.369C152.434 511.946 152.013 511.416 151.726 510.817Z" fill="white" stroke="#263238" stroke-linecap="round" stroke-linejoin="round"/>
<path d="M131.832 524.799C135.56 522.086 139.6 519.801 143.872 517.99C147.175 516.416 149.911 513.916 151.726 510.817C154.21 512.07 157.048 512.51 159.813 512.071C163.068 511.637 166.374 511.731 169.598 512.347L168.004 510.002L151 509.751L130.964 522.755L131.832 524.799Z" fill="white" stroke="#263238" stroke-linecap="round" stroke-linejoin="round"/>
<path d="M131.003 524.072C133.839 521.597 137.109 519.631 140.658 518.266C146.36 516.259 151.57 510.855 151.57 510.855C154.241 511.864 157.15 512.129 159.968 511.62C163.029 510.926 166.189 510.744 169.312 511.08C168.92 510.302 168.797 509.423 168.963 508.572L150.741 507.87L130.381 522.128L131.003 524.072Z" fill="white" stroke="#263238" stroke-linecap="round" stroke-linejoin="round"/>
<path d="M130.264 522.529L150.43 509.789L150.158 508.773L152.011 508.246L152.309 509.413L169.52 508.911C169.52 508.911 170.285 508.911 169.403 508.008C168.522 507.105 154.888 497.362 154.888 497.362L142.796 498.616L126.441 508.083L130.264 522.529Z" fill="#AF92EE"/>
<mask id="mask1_78_209" style="mask-type:luminance" maskUnits="userSpaceOnUse" x="126" y="497" width="44" height="26">
<path d="M130.264 522.529L150.43 509.789L150.158 508.773L152.011 508.246L152.309 509.413L169.52 508.911C169.52 508.911 170.285 508.911 169.403 508.008C168.522 507.105 154.888 497.362 154.888 497.362L142.796 498.616L126.441 508.083L130.264 522.529Z" fill="white"/>
</mask>
<g mask="url(#mask1_78_209)">
<path opacity="0.3" d="M150.21 508.773L150.482 509.789L130.316 522.529L126.454 508.046L142.809 498.578L143.133 498.54L150.702 508.635L150.21 508.773Z" fill="black"/>
</g>
<path d="M130.264 522.529L150.43 509.789L150.158 508.773L152.011 508.246L152.309 509.413L169.52 508.911C169.52 508.911 170.285 508.911 169.403 508.008C168.522 507.105 154.888 497.362 154.888 497.362L142.796 498.616L126.441 508.083L130.264 522.529Z" stroke="#263238" stroke-linecap="round" stroke-linejoin="round"/>
<path d="M150.21 508.773L142.434 498.666L143.341 498.365L152.063 508.246L150.21 508.773Z" fill="#AF92EE" stroke="#263238" stroke-linecap="round" stroke-linejoin="round"/>
<path d="M453.253 375.836L489.852 411.701L411.703 433.006L406.532 397.054L453.253 375.836Z" fill="#AF92EE" stroke="#263238" stroke-linecap="round" stroke-linejoin="round"/>
<path d="M485.64 416.88L404.809 439.866L411.327 398.534L452.113 380.928L485.64 416.88Z" fill="white" stroke="#263238" stroke-linecap="round" stroke-linejoin="round"/>
<path d="M454.031 383.16L484.098 420.78L408.256 442.085L417.069 396.866L454.031 383.16Z" fill="white"/>
<mask id="mask2_78_209" style="mask-type:luminance" maskUnits="userSpaceOnUse" x="408" y="383" width="77" height="60">
<path d="M454.031 383.16L484.098 420.78L408.256 442.085L417.069 396.866L454.031 383.16Z" fill="white"/>
</mask>
<g mask="url(#mask2_78_209)">
<path opacity="0.17" d="M454.031 383.16L484.098 420.78L408.256 442.085L417.069 396.866L454.031 383.16Z" fill="black"/>
</g>
<path d="M454.031 383.16L484.098 420.78L408.256 442.085L417.069 396.866L454.031 383.16Z" stroke="#263238" stroke-linecap="round" stroke-linejoin="round"/>
<path d="M454.031 383.16L440.241 429.482L386.418 445.245L407.103 402.609L454.031 383.16Z" fill="white" stroke="#263238" stroke-linecap="round" stroke-linejoin="round"/>
<path d="M436.418 425.783L384.513 442.649L382.971 435.602L431.053 418.924L436.418 425.783Z" fill="white" stroke="#263238" stroke-linecap="round" stroke-linejoin="round"/>
<path d="M452.696 376.852L487.17 411.513L485.64 416.88L454.031 383.16L436.418 425.783L431.053 418.924L452.696 376.852Z" fill="white" stroke="#263238" stroke-linecap="round" stroke-linejoin="round"/>
<path d="M453.253 375.836L431.247 420.228L380.483 436.906L406.533 397.054L453.253 375.836Z" fill="#AF92EE"/>
<mask id="mask3_78_209" style="mask-type:luminance" maskUnits="userSpaceOnUse" x="380" y="375" width="74" height="62">
<path d="M453.253 375.836L431.247 420.228L380.483 436.906L406.533 397.054L453.253 375.836Z" fill="white"/>
</mask>
<g mask="url(#mask3_78_209)">
<path opacity="0.3" d="M453.253 375.836L431.247 420.228L380.483 436.906L406.533 397.054L453.253 375.836Z" fill="black"/>
</g>
<path d="M453.253 375.836L431.247 420.228L380.483 436.906L406.533 397.054L453.253 375.836Z" stroke="#263238" stroke-linecap="round" stroke-linejoin="round"/>
<path d="M404.433 401.142L445.27 383.11" stroke="#263238" stroke-linecap="round" stroke-linejoin="round"/>
<path d="M283.218 504.71L320.698 460.093L243.379 456.582L237.223 494.064L283.218 504.71Z" fill="#AF92EE" stroke="#263238" stroke-linecap="round" stroke-linejoin="round"/>
<path d="M316.642 455.829L236.692 451.252L242.031 491.468L282.22 499.844L316.642 455.829Z" fill="white" stroke="#263238" stroke-linecap="round" stroke-linejoin="round"/>
<path d="M284.19 497.148L315.216 452.243L240.191 448.205L247.721 491.819L284.19 497.148Z" fill="white"/>
<mask id="mask4_78_209" style="mask-type:luminance" maskUnits="userSpaceOnUse" x="240" y="448" width="76" height="50">
<path d="M284.19 497.148L315.216 452.243L240.191 448.205L247.721 491.819L284.19 497.148Z" fill="white"/>
</mask>
<g mask="url(#mask4_78_209)">
<path opacity="0.17" d="M284.19 497.148L315.216 452.243L240.191 448.205L247.721 491.819L284.19 497.148Z" fill="black"/>
</g>
<path d="M284.19 497.148L315.216 452.243L240.191 448.205L247.721 491.819L284.19 497.148Z" stroke="#263238" stroke-linecap="round" stroke-linejoin="round"/>
<path d="M284.19 497.149L271.736 453.559L218.509 450.061L237.949 488.32L284.19 497.149Z" fill="white" stroke="#263238" stroke-linecap="round" stroke-linejoin="round"/>
<path d="M267.809 458.187L216.526 453.12L214.802 460.582L262.275 466.338L267.809 458.187Z" fill="white" stroke="#263238" stroke-linecap="round" stroke-linejoin="round"/>
<path d="M282.674 503.82L318.016 460.895L316.642 455.829L284.19 497.148L267.809 458.187L262.275 466.338L282.674 503.82Z" fill="white" stroke="#263238" stroke-linecap="round" stroke-linejoin="round"/>
<path d="M283.218 504.71L262.495 464.983L212.353 459.842L237.223 494.063L283.218 504.71Z" fill="#AF92EE"/>
<mask id="mask5_78_209" style="mask-type:luminance" maskUnits="userSpaceOnUse" x="212" y="459" width="72" height="46">
<path d="M283.218 504.71L262.495 464.983L212.353 459.842L237.223 494.063L283.218 504.71Z" fill="white"/>
</mask>
<g mask="url(#mask5_78_209)">
<path opacity="0.3" d="M283.218 504.71L262.495 464.983L212.353 459.842L237.223 494.063L283.218 504.71Z" fill="black"/>
</g>
<path d="M283.218 504.71L262.495 464.983L212.353 459.842L237.223 494.063L283.218 504.71Z" stroke="#263238" stroke-linecap="round" stroke-linejoin="round"/>
<path d="M233.4 489.123L274.237 497.437" stroke="#263238" stroke-linecap="round" stroke-linejoin="round"/>
<path d="M313.609 204.69C313.609 204.69 296.632 212.628 289.841 222.246C283.049 231.864 285.032 249.621 295.491 255.364C305.95 261.108 342.458 282.2 368.21 279.19C393.961 276.181 389.995 250.712 376.984 240.58C363.972 230.447 346.424 221.419 346.424 221.419C346.424 221.419 345.581 215.951 344.441 214.033C343.301 212.114 330.302 199.762 313.609 204.69Z" fill="#263238" stroke="#263238" stroke-linecap="round" stroke-linejoin="round"/>
<path d="M382.53 246.574C343.987 235.163 318.599 255.59 310.641 263.415C326.582 271.428 350.066 281.272 368.21 279.153C389.749 276.632 390.488 258.387 382.53 246.574Z" fill="white" stroke="#263238" stroke-linecap="round" stroke-linejoin="round"/>
<path d="M356.325 243.564C356.325 243.564 378.966 261.12 371.035 278.601" stroke="#263238" stroke-linecap="round" stroke-linejoin="round"/>
<path d="M282.013 197.041L272.941 237.984H280.237L298.226 205.719C298.226 205.719 294.713 195.373 282.013 197.041Z" fill="white" stroke="#263238" stroke-linecap="round" stroke-linejoin="round"/>
<path d="M396.035 177.178C388.609 168.4 378.798 160.261 360.822 158.869C360.822 158.869 345.504 158.405 324.664 166.983C308.373 173.679 290.968 188.301 282.013 197.079C290.022 199.047 294.791 202.22 298.239 205.756C301.79 202.483 304.887 199.637 307.168 197.843C314.84 191.812 326.103 186.72 326.103 186.72C326.103 186.72 313.881 202.935 311.484 207.111C309.086 211.286 310.771 218.008 323.459 219.864C336.147 221.72 339.27 219.4 344.298 216.616C349.327 213.832 355.561 211.286 357.958 211.286C362.75 211.615 367.505 210.281 371.372 207.524C377.593 203.349 380.237 191.536 382.388 190.608C383.865 189.968 396.942 206.471 407.129 218.861L408.01 218.422C412.442 216.215 415.902 211.713 418.274 207.75C410.032 196.1 400.843 182.871 396.035 177.178Z" fill="#AF92EE" stroke="#263238" stroke-linecap="round" stroke-linejoin="round"/>
<path d="M353.098 166.656C353.098 166.656 348.018 178.482 358.192 182.958" stroke="#263238" stroke-linecap="round" stroke-linejoin="round"/>
<path d="M326.103 186.683L337.144 183.523" stroke="#263238" stroke-linecap="round" stroke-linejoin="round"/>
<path d="M325.96 207.311C325.96 207.311 332.919 213.255 349.21 206.534" stroke="#263238" stroke-linecap="round" stroke-linejoin="round"/>
<path d="M389.529 186.106C385.511 186.62 382.388 190.62 382.388 190.62C387.024 189.665 391.738 189.107 396.475 188.953" stroke="#263238" stroke-linecap="round" stroke-linejoin="round"/>
<path d="M326.465 187.661C326.465 187.661 333.943 187.661 341.162 187.398" stroke="#263238" stroke-linecap="round" stroke-linejoin="round"/>
<path d="M330.47 204.201C330.47 204.201 331.273 208.866 341.693 208.339" stroke="#263238" stroke-linecap="round" stroke-linejoin="round"/>
<path d="M358.191 162.807C358.191 162.807 356.52 171.146 357.712 175.547C358.904 179.949 363.22 185.053 366.343 179.723C369.467 174.394 371.125 168.437 371.125 165.591C371.125 162.744 360.343 157.477 358.191 162.807Z" fill="white" stroke="#263238" stroke-linecap="round" stroke-linejoin="round"/>
<path d="M382.388 152.373C382.388 152.373 389.088 150.981 394.842 143.796C400.597 136.611 393.171 135.695 390.773 128.748C388.375 121.801 396.812 124.108 384.604 112.057C372.396 100.006 352.502 104.182 343.132 108.12C333.762 112.057 334.06 125.274 327.334 126.202C320.607 127.13 317.743 120.873 309.604 120.873C301.466 120.873 292.834 129.212 296.191 136.159C299.547 143.106 306.014 140.109 306.494 138.943C306.974 137.777 303.137 139.181 302.891 135.695C302.645 132.209 311.51 134.078 314.153 138.717C316.292 142.479 312.365 147.821 312.494 151.772C312.767 159.697 322.798 164.763 329.239 165.854C337.935 167.321 348.51 166.807 356.39 162.631C366.071 157.49 361.574 146.831 368.702 144.047C375.83 141.263 379.485 145.439 379.485 145.439L382.388 152.373Z" fill="#263238" stroke="#263238" stroke-linecap="round" stroke-linejoin="round"/>
<path d="M309.177 125.174C307.943 124.655 306.584 124.476 305.251 124.655C303.919 124.834 302.662 125.365 301.621 126.19" stroke="white" stroke-linecap="round" stroke-linejoin="round"/>
<path d="M373.096 131.67C373.096 131.67 373.096 117.876 363.09 115.067C353.085 112.258 341.655 124.748 335.874 132.623C330.094 140.498 321.618 138.617 315.385 130.316C314.798 129.515 314.149 128.761 313.441 128.058" stroke="white" stroke-linecap="round" stroke-linejoin="round"/>
<path d="M316.396 157.54C321.58 160.763 325.468 161.691 333.075 159.383C340.683 157.076 339.749 145.088 346.411 138.642C353.072 132.197 364.996 134.491 364.996 134.491C364.996 134.491 351.66 127.569 341.175 134.943C330.69 142.316 331.636 154.769 322.111 157.076" stroke="white" stroke-linecap="round" stroke-linejoin="round"/>
<path d="M379.77 133.099C379.77 133.099 388.842 130.792 388.349 122.955" stroke="white" stroke-linecap="round" stroke-linejoin="round"/>
<path d="M305.12 221.958C305.12 221.958 329.744 224.968 342.186 233.244" stroke="white" stroke-linecap="round" stroke-linejoin="round"/>
<path d="M374.573 136.084C373.039 135.658 371.411 135.669 369.883 136.113C368.355 136.558 366.991 137.418 365.954 138.592C361.885 142.755 362.066 144.862 358.671 147.458C357.658 148.314 356.382 148.824 355.039 148.908C353.697 148.992 352.363 148.645 351.245 147.922C349.806 147.232 348.134 147.696 347.655 150.931C347.175 154.167 351.724 156.725 352.45 156.725C353.172 156.763 353.89 156.842 354.602 156.963C354.602 156.963 354.602 162.757 358.671 166.23C362.74 169.704 370.892 175.271 376.4 174.118C381.908 172.964 384.06 160.675 384.06 154.417C383.858 148.073 382.566 141.805 380.236 135.871C378.552 132.209 374.573 136.084 374.573 136.084Z" fill="white" stroke="#263238" stroke-linecap="round" stroke-linejoin="round"/>
<path d="M370.024 150.166C370.024 151.42 369.557 152.499 368.961 152.499C368.365 152.499 367.885 151.458 367.885 150.166C367.885 148.875 368.365 147.846 368.961 147.846C369.557 147.846 370.024 148.887 370.024 150.166Z" fill="#263238"/>
<path d="M378.565 149.389C378.565 150.643 378.085 151.721 377.502 151.721C376.919 151.721 376.426 150.681 376.426 149.389C376.426 148.097 376.906 147.069 377.502 147.069C378.098 147.069 378.565 148.11 378.565 149.389Z" fill="#263238"/>
<path d="M364.944 145.464C364.944 145.464 366.538 143.144 370.555 144.21" stroke="#263238" stroke-linecap="round" stroke-linejoin="round"/>
<path d="M375.091 144.21C375.091 144.21 377.761 141.363 380.172 144.21" stroke="#263238" stroke-linecap="round" stroke-linejoin="round"/>
<path d="M374.832 149.389C374.832 149.389 375.091 154.568 376.698 154.568C378.305 154.568 377.761 156.888 375.623 157.665" stroke="#263238" stroke-linecap="round" stroke-linejoin="round"/>
<path d="M373.484 162.844C373.484 162.844 368.676 164.913 366.81 160.249" stroke="#263238" stroke-linecap="round" stroke-linejoin="round"/>
<path d="M374.612 277.31C374.612 277.31 347.396 254.211 319.195 246.348C290.994 238.486 258.542 242.185 230.354 234.799C202.166 227.413 185.94 217.243 185.94 217.243L184.501 241.734L373.717 291.191L503.162 256.531L516.057 231.112C516.057 231.112 500.298 238.962 472.11 245.433C443.922 251.903 412.338 251.891 394.648 258.324C376.957 264.757 374.612 277.31 374.612 277.31Z" fill="white" stroke="#263238" stroke-linecap="round" stroke-linejoin="round"/>
<path d="M181.637 222.773C181.637 222.773 213.208 241.269 284.332 247.74C331.183 251.991 374.612 277.309 374.612 277.309C393.642 265.537 415.55 258.84 438.116 257.898C475.376 256.518 517.885 242.185 517.885 242.185L509.785 258.324L370.789 284.658L178.773 236.128L181.637 222.773Z" fill="white" stroke="#263238" stroke-linecap="round" stroke-linejoin="round"/>
<path d="M176.389 228.328C203.259 240.071 232.018 247.248 261.406 249.546C312.508 253.245 373.173 277.272 373.173 277.272C373.173 277.272 405.172 260.644 440.565 260.644C466.854 260.427 493.009 257.01 518.416 250.474C517.626 253.028 517.43 255.72 517.843 258.357C518.255 260.993 519.265 263.508 520.801 265.722L372.694 296.257L175.43 240.768L176.389 228.328Z" fill="white" stroke="#263238" stroke-linecap="round" stroke-linejoin="round"/>
<path d="M177.348 239.301L366.486 285.172V291.643L382.725 292.107V284.658L525.064 262.939C525.064 262.939 531.272 261.547 526.023 268.481C520.775 275.416 429.057 352.6 429.057 352.6L327.321 362.77L173.032 330.003L173.952 241.834C173.955 241.434 174.052 241.04 174.236 240.682C174.419 240.324 174.685 240.011 175.012 239.767C175.339 239.523 175.72 239.354 176.124 239.273C176.529 239.192 176.947 239.202 177.348 239.301Z" fill="#AF92EE"/>
<mask id="mask6_78_209" style="mask-type:luminance" maskUnits="userSpaceOnUse" x="173" y="239" width="356" height="124">
<path d="M177.348 239.301L366.486 285.172V291.643L382.725 292.107V284.658L525.064 262.939C525.064 262.939 531.272 261.547 526.023 268.481C520.775 275.416 429.057 352.6 429.057 352.6L327.321 362.77L173.032 330.003L173.952 241.834C173.955 241.434 174.052 241.04 174.236 240.682C174.419 240.324 174.685 240.011 175.012 239.767C175.339 239.523 175.72 239.354 176.124 239.273C176.529 239.192 176.947 239.202 177.348 239.301Z" fill="white"/>
</mask>
<g mask="url(#mask6_78_209)">
<path opacity="0.3" d="M366.486 291.643V285.172L173.991 238.498L173.045 330.003L327.321 362.82L330.081 362.544L370.802 291.768L366.486 291.643Z" fill="black"/>
</g>
<path d="M177.348 239.301L366.486 285.172V291.643L382.725 292.107V284.658L525.064 262.939C525.064 262.939 531.272 261.547 526.023 268.481C520.775 275.416 429.057 352.6 429.057 352.6L327.321 362.77L173.032 330.003L173.952 241.834C173.955 241.434 174.052 241.04 174.236 240.682C174.419 240.324 174.685 240.011 175.012 239.767C175.339 239.523 175.72 239.354 176.124 239.273C176.529 239.192 176.947 239.202 177.348 239.301Z" stroke="#263238" stroke-linecap="round" stroke-linejoin="round"/>
<path d="M366.486 291.643L323.977 362.82L332.103 363.271L382.725 292.107L366.486 291.643Z" fill="#AF92EE" stroke="#263238" stroke-linecap="round" stroke-linejoin="round"/>
<path d="M508.359 265.848C508.359 265.848 521.047 268.143 518.403 276.331L526.023 268.506C526.023 268.506 529.51 264.305 527.916 263.49C526.321 262.675 508.359 265.848 508.359 265.848Z" fill="#263238"/>
<path d="M194.882 243.953C194.882 243.953 176.933 248.756 174.146 261.735L173.991 241.834C173.991 241.834 174.535 238.837 177.374 239.326C180.212 239.815 194.882 243.953 194.882 243.953Z" fill="#263238"/>
<path d="M173.213 323.908L182.234 332.222L173.045 330.003L173.213 323.908Z" fill="#263238"/>
<path d="M422.564 353.189L434.798 347.37L428.357 352.775L422.564 353.189Z" fill="#263238"/>
<path d="M418.274 207.763L452.696 247.69L444.026 249.019L407.128 218.923C407.128 218.923 416.68 212.866 418.274 207.763Z" fill="white" stroke="#263238" stroke-linecap="round" stroke-linejoin="round"/>
<path d="M265.631 234.322C265.631 234.322 263.908 232.303 263.467 234.109C263.026 235.915 259.125 242.185 262.171 242.624C265.216 243.063 266.94 235.902 266.94 235.902L265.631 234.322Z" fill="white" stroke="#263238" stroke-linecap="round" stroke-linejoin="round"/>
<path d="M269.752 234.084C269.752 234.084 268.016 232.065 267.588 233.858C267.16 235.652 263.246 241.934 266.292 242.386C269.338 242.837 271.074 235.652 271.074 235.652L269.752 234.084Z" fill="white" stroke="#263238" stroke-linecap="round" stroke-linejoin="round"/>
<path d="M273.887 233.934C273.887 233.934 271.826 231.689 271.295 233.683C270.763 235.677 266.111 242.649 269.753 243.151C273.394 243.652 275.416 235.627 275.416 235.627L273.887 233.934Z" fill="white" stroke="#263238" stroke-linecap="round" stroke-linejoin="round"/>
<path d="M277.49 234.686L284.436 241.157H276.207L277.49 234.686Z" fill="white" stroke="#263238" stroke-linecap="round" stroke-linejoin="round"/>
<path d="M277.49 234.686C277.49 234.686 275.429 232.441 274.898 234.435C274.366 236.429 269.714 243.401 273.355 243.89C276.997 244.379 279.019 236.366 279.019 236.366L277.49 234.686Z" fill="white" stroke="#263238" stroke-linecap="round" stroke-linejoin="round"/>
<path d="M462.04 240.492C462.04 240.492 463.427 238.235 464.152 239.94C464.878 241.646 469.738 247.264 466.822 248.167C463.906 249.069 461.016 242.248 461.016 242.248L462.04 240.492Z" fill="white" stroke="#263238" stroke-linecap="round" stroke-linejoin="round"/>
<path d="M457.971 240.868C457.971 240.868 459.357 238.611 460.083 240.317C460.809 242.022 465.682 247.64 462.753 248.543C459.824 249.446 456.947 242.624 456.947 242.624L457.971 240.868Z" fill="white" stroke="#263238" stroke-linecap="round" stroke-linejoin="round"/>
<path d="M453.875 241.357C453.875 241.357 455.547 238.849 456.376 240.718C457.206 242.586 462.856 248.793 459.435 249.834C456.013 250.875 452.631 243.313 452.631 243.313L453.875 241.357Z" fill="white" stroke="#263238" stroke-linecap="round" stroke-linejoin="round"/>
<path d="M450.441 242.649L444.622 250.098L452.761 248.844L450.441 242.649Z" fill="white" stroke="#263238" stroke-linecap="round" stroke-linejoin="round"/>
<path d="M450.441 242.649C450.441 242.649 452.1 240.141 452.942 242.009C453.784 243.878 459.422 250.073 456.001 251.114C452.579 252.154 449.197 244.605 449.197 244.605L450.441 242.649Z" fill="white" stroke="#263238" stroke-linecap="round" stroke-linejoin="round"/>
<path d="M214.336 309.625L222.63 308.371L214.336 307.117C213.605 307.01 212.929 306.68 212.407 306.174C211.885 305.669 211.543 305.015 211.433 304.308L210.137 296.27L208.841 304.308C208.731 305.013 208.391 305.666 207.871 306.171C207.351 306.676 206.678 307.008 205.95 307.117L197.643 308.371L205.95 309.625C206.676 309.74 207.346 310.073 207.865 310.578C208.383 311.082 208.725 311.731 208.841 312.434L210.137 320.472L211.433 312.434C211.549 311.73 211.892 311.079 212.414 310.574C212.935 310.07 213.608 309.738 214.336 309.625Z" fill="white"/>
<path d="M152.374 364.074L160.681 362.82L152.374 361.566C151.646 361.451 150.975 361.119 150.454 360.615C149.933 360.11 149.589 359.461 149.471 358.757L148.175 350.719L146.879 358.757C146.766 359.463 146.424 360.116 145.902 360.621C145.38 361.126 144.705 361.457 143.976 361.566L135.668 362.82L143.976 364.074C144.705 364.183 145.38 364.514 145.902 365.019C146.424 365.524 146.766 366.177 146.879 366.883L148.175 374.921L149.471 366.883C149.589 366.179 149.933 365.529 150.454 365.025C150.975 364.521 151.646 364.188 152.374 364.074Z" fill="#AF92EE"/>
<path opacity="0.5" d="M152.374 364.074L160.681 362.82L152.374 361.566C151.646 361.451 150.975 361.119 150.454 360.615C149.933 360.11 149.589 359.461 149.471 358.757L148.175 350.719L146.879 358.757C146.766 359.463 146.424 360.116 145.902 360.621C145.38 361.126 144.705 361.457 143.976 361.566L135.668 362.82L143.976 364.074C144.705 364.183 145.38 364.514 145.902 365.019C146.424 365.524 146.766 366.177 146.879 366.883L148.175 374.921L149.471 366.883C149.589 366.179 149.933 365.529 150.454 365.025C150.975 364.521 151.646 364.188 152.374 364.074Z" fill="white"/>
<path d="M359.215 397.593L367.523 396.339L359.215 395.085C358.487 394.977 357.814 394.648 357.292 394.145C356.771 393.643 356.427 392.993 356.312 392.289L355.016 384.251L353.72 392.289C353.605 392.993 353.262 393.643 352.74 394.145C352.218 394.648 351.545 394.977 350.817 395.085L342.51 396.339L350.817 397.593C351.545 397.701 352.218 398.031 352.74 398.533C353.262 399.036 353.605 399.686 353.72 400.39L355.016 408.428L356.312 400.39C356.427 399.686 356.771 399.036 357.292 398.533C357.814 398.031 358.487 397.701 359.215 397.593Z" fill="#AF92EE"/>
<path opacity="0.5" d="M359.215 397.593L367.523 396.339L359.215 395.085C358.487 394.977 357.814 394.648 357.292 394.145C356.771 393.643 356.427 392.993 356.312 392.289L355.016 384.251L353.72 392.289C353.605 392.993 353.262 393.643 352.74 394.145C352.218 394.648 351.545 394.977 350.817 395.085L342.51 396.339L350.817 397.593C351.545 397.701 352.218 398.031 352.74 398.533C353.262 399.036 353.605 399.686 353.72 400.39L355.016 408.428L356.312 400.39C356.427 399.686 356.771 399.036 357.292 398.533C357.814 398.031 358.487 397.701 359.215 397.593Z" fill="white"/>
<path d="M141.747 321.312L147.242 320.472L141.747 319.632C141.264 319.56 140.819 319.342 140.474 319.008C140.129 318.674 139.903 318.243 139.828 317.776L138.973 312.472L138.105 317.776C138.031 318.243 137.805 318.674 137.46 319.008C137.115 319.342 136.669 319.56 136.187 319.632L130.692 320.472L136.187 321.312C136.669 321.384 137.115 321.603 137.46 321.937C137.805 322.27 138.031 322.702 138.105 323.168L138.973 328.473L139.828 323.168C139.903 322.702 140.129 322.27 140.474 321.937C140.819 321.603 141.264 321.384 141.747 321.312Z" fill="#AF92EE"/>
<path opacity="0.5" d="M141.747 321.312L147.242 320.472L141.747 319.632C141.264 319.56 140.819 319.342 140.474 319.008C140.129 318.674 139.903 318.243 139.828 317.776L138.973 312.472L138.105 317.776C138.031 318.243 137.805 318.674 137.46 319.008C137.115 319.342 136.669 319.56 136.187 319.632L130.692 320.472L136.187 321.312C136.669 321.384 137.115 321.603 137.46 321.937C137.805 322.27 138.031 322.702 138.105 323.168L138.973 328.473L139.828 323.168C139.903 322.702 140.129 322.27 140.474 321.937C140.819 321.603 141.264 321.384 141.747 321.312Z" fill="white"/>
<path d="M498.224 333.05L503.719 332.222L498.224 331.382C497.743 331.308 497.298 331.089 496.954 330.756C496.609 330.422 496.382 329.992 496.306 329.526L495.438 324.209L494.583 329.526C494.506 329.992 494.28 330.422 493.935 330.756C493.591 331.089 493.146 331.308 492.664 331.382L487.169 332.222L492.664 333.05C493.146 333.124 493.591 333.343 493.935 333.676C494.28 334.01 494.506 334.44 494.583 334.906L495.438 340.223L496.306 334.906C496.382 334.44 496.609 334.01 496.954 333.676C497.298 333.343 497.743 333.124 498.224 333.05Z" fill="#AF92EE"/>
<path opacity="0.5" d="M498.224 333.05L503.719 332.222L498.224 331.382C497.743 331.308 497.298 331.089 496.954 330.756C496.609 330.422 496.382 329.992 496.306 329.526L495.438 324.209L494.583 329.526C494.506 329.992 494.28 330.422 493.935 330.756C493.591 331.089 493.146 331.308 492.664 331.382L487.169 332.222L492.664 333.05C493.146 333.124 493.591 333.343 493.935 333.676C494.28 334.01 494.506 334.44 494.583 334.906L495.438 340.223L496.306 334.906C496.382 334.44 496.609 334.01 496.954 333.676C497.298 333.343 497.743 333.124 498.224 333.05Z" fill="white"/>
<path d="M247.098 288.859L252.477 288.044L247.098 287.229C246.626 287.157 246.19 286.943 245.852 286.616C245.515 286.289 245.293 285.867 245.219 285.41L244.364 280.194L243.521 285.41C243.446 285.866 243.223 286.287 242.886 286.614C242.548 286.94 242.113 287.155 241.642 287.229L236.251 288.044L241.642 288.859C242.113 288.932 242.548 289.147 242.886 289.474C243.223 289.8 243.446 290.221 243.521 290.677L244.312 295.944L245.167 290.727C245.234 290.255 245.458 289.816 245.807 289.478C246.156 289.141 246.609 288.923 247.098 288.859Z" fill="white"/>
<path d="M425.286 340.348L430.677 339.521L425.286 338.706C424.814 338.632 424.379 338.417 424.042 338.091C423.704 337.764 423.482 337.343 423.406 336.887L422.564 331.671L421.722 336.887C421.646 337.343 421.423 337.764 421.086 338.091C420.749 338.417 420.313 338.632 419.842 338.706L414.451 339.521L419.842 340.348C420.314 340.42 420.75 340.634 421.088 340.961C421.426 341.288 421.648 341.71 421.722 342.167L422.564 347.371L423.406 342.167C423.48 341.71 423.702 341.288 424.04 340.961C424.377 340.634 424.814 340.42 425.286 340.348Z" fill="white"/>
</svg>
