<svg width="152" height="152" viewBox="0 0 152 152" fill="none" xmlns="http://www.w3.org/2000/svg">
<path d="M126.739 58.9898C129.174 66.4834 130.186 74.3584 129.716 82.165C129.247 89.9716 127.306 97.557 124.004 104.488C120.702 111.419 116.104 117.56 110.472 122.561C104.841 127.561 98.2854 131.323 91.181 133.631C84.0767 135.939 76.5623 136.749 69.0669 136.014C61.5715 135.279 54.242 133.013 47.4967 129.347C40.7515 125.68 34.7226 120.684 29.7544 114.645C24.7862 108.605 20.9759 101.639 18.541 94.1454L72.64 76.5676L126.739 58.9898Z" fill="#9747FF"/>
<path d="M24.4695 92.2192C22.0346 84.7256 21.0229 76.8506 21.4922 69.044C21.9614 61.2374 23.9024 53.652 27.2042 46.7209C30.5061 39.7898 35.1042 33.6488 40.736 28.6484C46.3678 23.6481 52.9231 19.8864 60.0275 17.578C67.1318 15.2696 74.6462 14.4599 82.1416 15.1949C89.637 15.93 96.9665 18.1955 103.712 21.8621C110.457 25.5287 116.486 30.5245 121.454 36.5644C126.422 42.6043 130.233 49.5699 132.667 57.0636L78.5685 74.6414L24.4695 92.2192Z" fill="#9747FF"/>
</svg>
