<svg width="694" height="528" viewBox="0 0 694 528" fill="none" xmlns="http://www.w3.org/2000/svg">
<path d="M118.271 306.113L100.047 306.409L90.803 306.525C87.7216 306.578 84.6125 306.525 81.5172 306.578H80.8926V306.103L80.8232 294.286V293.758H81.5172L99.8944 293.821C106.015 293.821 112.137 293.938 118.271 294.001H118.646V294.286C118.646 296.292 118.521 298.288 118.466 300.252L118.271 306.113ZM118.271 306.113L118.077 300.147C118.077 298.172 117.911 296.229 117.883 294.297L118.271 294.582C112.137 294.635 106.015 294.751 99.8944 294.761L81.5172 294.825L82.2112 294.297L82.128 306.113L81.5172 305.638C84.5431 305.638 87.555 305.638 90.5948 305.701L99.7278 305.818L118.271 306.113Z" fill="#EBEBEB"/>
<path d="M97.7707 321.024L79.5462 321.32L70.3022 321.436C67.2069 321.489 64.1117 321.436 61.0164 321.489H60.3918V321.024V309.207V308.679H61.072L79.4491 308.743C85.5702 308.743 91.6912 308.859 97.8262 308.922H98.201V309.207C98.201 311.214 98.076 313.21 98.0205 315.174L97.7707 321.024ZM97.7707 321.024L97.5625 315.047C97.5625 313.083 97.4098 311.14 97.382 309.207L97.7707 309.493C91.6357 309.545 85.5146 309.662 79.3936 309.672L61.072 309.725L61.7521 309.197L61.6272 321.024L61.0164 320.549C64.0423 320.549 67.0542 320.549 70.094 320.612L79.227 320.728L97.7707 321.024Z" fill="#EBEBEB"/>
<path d="M138.8 321.024L120.576 321.32L111.331 321.436C108.25 321.489 105.141 321.436 102.046 321.489H101.435V321.024V309.207V308.679H102.129L120.506 308.743C126.627 308.743 132.762 308.859 138.883 308.922H139.258V309.207C139.258 311.214 139.147 313.21 139.078 315.174L138.8 321.024ZM138.8 321.024L138.606 315.047C138.606 313.083 138.439 311.14 138.425 309.207L138.8 309.493C132.679 309.545 126.544 309.662 120.423 309.672L102.046 309.735L102.74 309.207L102.629 321.024L102.018 320.549C105.044 320.549 108.07 320.549 111.096 320.612L120.229 320.728L138.8 321.024Z" fill="#EBEBEB"/>
<path d="M612.483 321.024L594.272 321.32L585.028 321.436C581.933 321.489 578.824 321.436 575.728 321.489H575.118V321.024L575.034 309.207V308.679H575.728L594.106 308.743C600.24 308.743 606.362 308.859 612.483 308.922H612.871V309.207C612.871 311.214 612.746 313.21 612.691 315.174L612.483 321.024ZM612.483 321.024L612.288 315.047C612.288 313.083 612.136 311.14 612.108 309.207L612.483 309.493C606.362 309.545 600.24 309.662 594.106 309.672L575.728 309.735L576.422 309.207L576.353 321.024L575.728 320.549C578.754 320.549 581.78 320.549 584.82 320.612L593.953 320.728L612.483 321.024Z" fill="#EBEBEB"/>
<path d="M612.483 90.573L594.272 90.8159L585.028 90.9426C581.933 90.9426 578.824 90.9426 575.728 90.9426H575.118V90.478L575.034 78.6614V78.1228H575.728L594.106 78.1862C600.24 78.1862 606.362 78.3023 612.483 78.3551H612.871V78.6402C612.871 80.6361 612.746 82.6319 612.691 84.6066L612.483 90.573ZM612.483 90.573L612.288 84.5961C612.288 82.6319 612.136 80.6889 612.108 78.7564L612.483 79.0415C606.362 79.0943 600.24 79.2105 594.106 79.2105L575.728 79.2738L576.422 78.7564L576.353 90.573L575.728 90.0978C578.754 90.0978 581.78 90.0978 584.82 90.1506L593.953 90.2774L612.483 90.573Z" fill="#EBEBEB"/>
<path d="M632.928 105.473L614.717 105.758L605.473 105.885C602.378 105.885 599.283 105.885 596.174 105.885H595.563V105.42L595.48 93.6037V93.0652H596.174L614.551 93.1286C620.686 93.1286 626.807 93.2447 632.928 93.2975H633.317V93.5826C633.317 95.5785 633.192 97.5743 633.136 99.549L632.928 105.473ZM632.928 105.473L632.734 99.4962C632.734 97.5321 632.581 95.589 632.553 93.6566L632.928 93.9839C626.807 94.0367 620.686 94.1529 614.551 94.1529L596.174 94.2162L596.868 93.6988L596.84 105.473L596.215 104.998C599.255 104.998 602.267 104.998 605.307 104.998L614.44 105.125L632.928 105.473Z" fill="#EBEBEB"/>
<path d="M97.7707 90.5838L79.5462 90.8795L70.3022 90.9956C67.2069 90.9956 64.1117 90.9956 61.0164 90.9956H60.3918V90.5204V78.7038V78.1758H61.072L79.4491 78.2391C85.5702 78.2391 91.6912 78.3553 97.8262 78.4081H98.201V78.6932C98.201 80.6996 98.076 82.6849 98.0205 84.6596L97.7707 90.5838ZM97.7707 90.5838L97.5625 84.6068C97.5625 82.6427 97.4098 80.6996 97.382 78.7671L97.7707 79.0523C91.6357 79.0523 85.5146 79.2212 79.3936 79.2212L61.072 79.2951L61.7521 78.7671L61.6272 90.5838L61.072 90.1086C64.0978 90.1086 67.1098 90.1086 70.1495 90.1719L79.2825 90.2881L97.7707 90.5838Z" fill="#EBEBEB"/>
<path d="M296.741 169.836L314.951 169.541L324.195 169.425C327.29 169.372 330.4 169.425 333.495 169.372H334.106V169.847L334.189 181.664V182.192H333.495L315.076 182.118C308.941 182.118 302.82 182.002 296.699 181.949H296.31V181.632C296.31 179.626 296.435 177.64 296.491 175.666L296.741 169.836ZM296.741 169.836L296.935 175.813C296.935 177.778 297.088 179.721 297.115 181.653L296.741 181.368C302.862 181.315 308.983 181.199 315.118 181.199L333.495 181.125L332.801 181.653V169.836L333.425 170.312C330.4 170.312 327.374 170.312 324.334 170.248L315.201 170.132L296.741 169.836Z" fill="#EBEBEB"/>
<path d="M317.241 154.936L335.452 154.641L344.696 154.524C347.791 154.472 350.9 154.524 353.996 154.472H354.606V154.947L354.69 166.764V167.292H353.94L335.563 167.228C329.442 167.228 323.307 167.112 317.186 167.059H316.797V166.774C316.797 164.768 316.908 162.782 316.978 160.808L317.241 154.936ZM317.241 154.936L317.436 160.913C317.505 162.877 317.588 164.82 317.616 166.753L317.241 166.468C323.362 166.468 329.497 166.299 335.618 166.299L353.996 166.225L353.302 166.753L353.371 154.936L353.996 155.412C350.97 155.412 347.944 155.412 344.904 155.348L335.771 155.232L317.241 154.936Z" fill="#EBEBEB"/>
<path d="M302.751 0H301.363V91.7136H302.751V0Z" fill="#C7C7C7"/>
<path d="M343.919 122.412L340.56 128.04H263.553L260.208 122.412L292.979 105.156H311.134L343.919 122.412Z" fill="#EBEBEB"/>
<path d="M313.41 88.5244L311.134 105.156H292.979L290.703 88.5244H313.41Z" fill="#DBDBDB"/>
<path d="M343.918 122.412L340.546 128.051H263.553L260.194 122.412H343.918Z" fill="#DBDBDB"/>
<path d="M392.638 0H391.25V73.5504H392.638V0Z" fill="#C7C7C7"/>
<path d="M433.805 104.248L430.433 109.877H353.44L350.081 104.248L382.866 86.9827H401.021L433.805 104.248Z" fill="#EBEBEB"/>
<path d="M403.297 70.3508L401.021 86.9828H382.866L380.59 70.3508H403.297Z" fill="#DBDBDB"/>
<path d="M433.805 104.248L430.433 109.877H353.44L350.081 104.248H433.805Z" fill="#DBDBDB"/>
<path d="M600.143 347.762H491.296V462.37H600.143V347.762Z" fill="#EBEBEB"/>
<path d="M605.418 343.517H486.022V347.773H605.418V343.517Z" fill="#DBDBDB"/>
<path d="M642.963 343.517H605.418V347.773H642.963V343.517Z" fill="#EBEBEB"/>
<path d="M637.022 347.762H600.143V462.37H637.022V347.762Z" fill="#DBDBDB"/>
<path d="M588.512 400.837H502.969V364.056H588.512V400.837ZM503.372 400.573H588.165V364.32H503.316L503.372 400.573Z" fill="#C7C7C7"/>
<path d="M550.425 374.817H533.797V382.092H550.425V374.817Z" fill="#C7C7C7"/>
<path d="M555.505 381.67H538.544V375.229H555.505V381.67ZM538.849 381.406H555.2V375.493H538.891L538.849 381.406Z" fill="#C7C7C7"/>
<path d="M588.512 446.973H502.969V410.193H588.512V446.973ZM503.316 446.688H588.109V410.457H503.316V446.688Z" fill="#C7C7C7"/>
<path d="M550.425 420.953H533.797V428.229H550.425V420.953Z" fill="#C7C7C7"/>
<path d="M555.505 427.807H538.544V421.344H555.505V427.807ZM538.849 427.543H555.2V421.64H538.891L538.849 427.543Z" fill="#C7C7C7"/>
<path d="M347 487.967C486.125 487.967 598.908 483.986 598.908 479.076C598.908 474.165 486.125 470.184 347 470.184C207.875 470.184 95.0918 474.165 95.0918 479.076C95.0918 483.986 207.875 487.967 347 487.967Z" fill="#EBEBEB"/>
<path d="M372.303 357.044H348.083V428.947H372.303V357.044Z" fill="#455A64"/>
<path d="M372.303 432.495H348.083V444.333H372.303V432.495Z" fill="#455A64"/>
<path d="M372.303 447.892H348.083V455.189H372.303V447.892Z" fill="#455A64"/>
<path d="M372.303 458.748H348.083V462.37H372.303V458.748Z" fill="#455A64"/>
<path d="M380.381 357.044H340.004L360.186 335.787L380.381 357.044Z" fill="#455A64"/>
<path d="M420.522 334.192H396.302V428.947H420.522V334.192Z" fill="#455A64"/>
<path d="M420.522 432.495H396.302V444.333H420.522V432.495Z" fill="#455A64"/>
<path d="M420.522 447.892H396.302V455.189H420.522V447.892Z" fill="#455A64"/>
<path d="M420.522 458.748H396.302V462.37H420.522V458.748Z" fill="#455A64"/>
<path d="M428.6 334.182H388.223L408.405 312.935L428.6 334.182Z" fill="#455A64"/>
<path d="M468.741 311.341H444.521V428.947H468.741V311.341Z" fill="#455A64"/>
<path d="M468.741 432.495H444.521V444.333H468.741V432.495Z" fill="#455A64"/>
<path d="M468.741 447.892H444.521V455.189H468.741V447.892Z" fill="#455A64"/>
<path d="M468.741 458.748H444.521V462.37H468.741V458.748Z" fill="#455A64"/>
<path d="M476.806 311.33H436.443L456.624 290.083L476.806 311.33Z" fill="#455A64"/>
<path d="M516.947 288.489H492.726V428.947H516.947V288.489Z" fill="#455A64"/>
<path d="M516.947 432.495H492.726V444.333H516.947V432.495Z" fill="#455A64"/>
<path d="M516.947 447.892H492.726V455.189H516.947V447.892Z" fill="#455A64"/>
<path d="M516.947 458.748H492.726V462.37H516.947V458.748Z" fill="#455A64"/>
<path d="M525.025 288.489H484.662L504.843 267.231L525.025 288.489Z" fill="#455A64"/>
<path d="M542.708 351.395C546.969 348.227 552.424 344.393 558.975 345.755C565.097 347.044 567.442 352.091 568.539 356.315C569.927 361.775 571.037 367.287 572.189 372.789C573.341 378.291 574.41 383.888 575.465 389.453C576.057 392.593 576.64 395.732 577.214 398.872C577.505 400.435 577.797 402.04 578.074 403.582C578.352 405.124 578.699 406.655 578.81 408.207C578.81 408.314 578.758 408.417 578.665 408.496C578.572 408.575 578.443 408.626 578.304 408.638C578.165 408.649 578.025 408.622 577.911 408.56C577.796 408.498 577.716 408.406 577.686 408.302C576.895 405.683 576.561 402.959 576.062 400.308C575.562 397.658 575.048 394.965 574.535 392.293C573.508 386.985 572.462 381.677 571.398 376.369C570.357 371.089 569.261 365.756 568.15 360.455C567.206 355.967 566.762 350.381 561.529 347.413C560.109 346.672 558.463 346.219 556.749 346.097C555.034 345.975 553.306 346.188 551.73 346.716C548.403 347.858 545.386 349.463 542.833 351.447C542.833 351.458 542.83 351.47 542.823 351.479C542.816 351.489 542.806 351.498 542.793 351.503C542.781 351.509 542.766 351.512 542.751 351.513C542.737 351.513 542.722 351.51 542.709 351.505C542.696 351.499 542.686 351.491 542.678 351.482C542.671 351.472 542.667 351.461 542.667 351.45C542.666 351.439 542.67 351.428 542.677 351.418C542.685 351.408 542.695 351.4 542.708 351.395Z" fill="#263238"/>
<path d="M548.565 348.153C548.565 348.153 557.268 345.766 561.557 350.603C565.846 355.439 560.71 367.72 521.111 374.648C522.278 365.234 525.496 356.034 530.632 347.424C539.127 333.316 554.256 338.659 548.565 348.153Z" fill="#FFF527"/>
<path d="M523.387 372.631C523.988 371.79 524.65 370.975 525.372 370.191C526.038 369.41 526.76 368.639 527.385 367.868C527.898 367.298 528.412 366.717 528.939 366.147C528.939 366.01 528.939 365.862 528.856 365.714L528.731 364.932C528.634 364.373 528.523 363.803 528.412 363.243C528.301 362.683 528.176 362.124 528.037 361.564C527.945 360.961 527.773 360.366 527.523 359.79C527.523 359.773 527.532 359.757 527.548 359.745C527.563 359.733 527.585 359.726 527.607 359.726C527.629 359.726 527.65 359.733 527.666 359.745C527.681 359.757 527.69 359.773 527.69 359.79C527.774 360.128 527.895 360.46 528.051 360.782C528.134 361.036 528.231 361.289 528.315 361.553C528.509 362.124 528.689 362.694 528.856 363.264C529.009 363.803 529.147 364.32 529.258 364.869C529.328 365.123 529.37 365.387 529.411 365.64C530.119 364.88 530.799 364.119 531.59 363.37C533.686 361.258 535.907 359.241 538.211 357.255C538.224 354.099 537.88 350.948 537.184 347.836C537.184 347.751 537.323 347.709 537.351 347.836C538.393 350.771 538.888 353.803 538.822 356.844L541.334 354.732C543.263 353.158 545.22 351.563 547.233 350.085C547.241 350.079 547.251 350.074 547.262 350.071C547.272 350.067 547.284 350.065 547.296 350.065C547.307 350.065 547.319 350.067 547.329 350.071C547.34 350.074 547.35 350.079 547.358 350.085C547.366 350.091 547.373 350.099 547.377 350.107C547.382 350.115 547.384 350.124 547.384 350.133C547.384 350.141 547.382 350.15 547.377 350.158C547.373 350.166 547.366 350.174 547.358 350.18C544.027 352.905 540.862 355.756 537.767 358.628C540.185 358.603 542.604 358.674 545.012 358.839C547.691 358.987 550.37 359.251 553.035 359.526C553.146 359.526 553.104 359.674 553.035 359.663C550.38 359.369 547.707 359.186 545.026 359.114C542.444 359.04 539.877 359.114 537.295 359.114C535.629 360.691 533.982 362.278 532.354 363.876H534.533C535.74 363.876 536.948 363.95 538.142 364.035C540.601 364.187 543.045 364.462 545.456 364.859C545.474 364.864 545.49 364.873 545.501 364.886C545.512 364.898 545.518 364.912 545.518 364.927C545.518 364.942 545.512 364.956 545.501 364.969C545.49 364.981 545.474 364.99 545.456 364.996C543.014 364.785 540.585 364.616 538.128 364.552C536.962 364.552 535.796 364.552 534.63 364.552C534.019 364.552 533.409 364.552 532.812 364.552C532.476 364.583 532.135 364.558 531.812 364.478L528.62 367.646C527.787 368.491 526.954 369.336 526.135 370.191C525.317 371.047 524.553 372.018 523.623 372.842C523.457 372.768 523.346 372.705 523.387 372.631Z" fill="#263238"/>
<path d="M544.776 354.995C546.18 354.858 547.595 354.805 549.01 354.837C550.398 354.837 551.786 354.837 553.257 354.911C553.382 354.911 553.368 355.047 553.257 355.047C551.869 354.963 550.384 354.942 548.954 354.963C547.525 354.984 546.178 355.079 544.79 355.047C544.735 355.047 544.735 355.005 544.776 354.995Z" fill="#263238"/>
<path d="M532.34 357.424C532.187 356.368 532.007 355.312 531.729 354.351C531.729 354.256 531.882 354.225 531.896 354.351C532.104 355.407 532.354 356.368 532.562 357.382C532.659 357.889 532.742 358.438 532.826 358.913C532.944 359.387 532.999 359.868 532.992 360.349C532.984 360.368 532.968 360.384 532.946 360.396C532.925 360.407 532.9 360.413 532.874 360.413C532.848 360.413 532.823 360.407 532.802 360.396C532.781 360.384 532.765 360.368 532.756 360.349C532.637 359.876 532.568 359.395 532.548 358.913C532.492 358.406 532.423 357.91 532.34 357.424Z" fill="#263238"/>
<path d="M586.527 407.141C586.735 405.24 586.985 403.35 587.249 401.449C587.762 397.7 588.373 393.951 589.026 390.213C589.678 386.475 590.316 382.747 591.108 379.03C591.402 377.305 591.909 375.604 592.62 373.951C592.877 373.243 593.343 372.59 593.983 372.041C594.623 371.491 595.42 371.061 596.313 370.783C600.976 369.568 604.127 373.243 606.029 375.841C606.029 375.915 605.931 375.978 605.876 375.904C604.752 374.679 601.629 371.216 598.103 371.374C595.716 371.49 593.814 372.768 592.676 377.277C589.831 388.523 587.263 411.344 586.971 412.833C586.805 413.625 586.069 413.593 586.069 412.738C586.027 410.868 586.305 408.999 586.527 407.141Z" fill="#263238"/>
<path d="M604.752 374.436C604.752 374.436 600.671 363.486 609.679 368.956C624.67 378.069 625.197 397.88 625.197 397.88C625.197 397.88 598.547 386.105 595.244 378.344C590.303 366.77 604.752 374.436 604.752 374.436Z" fill="#FFF527"/>
<path d="M599.699 379.801C601.795 380.128 603.863 380.339 606.029 380.572L609.027 380.889C609.693 380.962 610.415 381.005 611.067 381.068C609.082 378.956 607.07 376.918 605.168 374.795C605.099 374.711 605.265 374.626 605.349 374.7C606.929 375.938 608.416 377.243 609.804 378.608C610.193 377.763 610.595 376.918 610.984 376.063C611.473 375.095 611.895 374.108 612.247 373.106C612.247 373.021 612.455 373.053 612.427 373.106C612.053 374.109 611.803 375.133 611.456 376.147C611.109 377.161 610.72 378.069 610.262 379.019C611.248 379.98 612.178 380.973 613.038 381.966C613.496 380.973 614.065 380.023 614.426 379.019C614.426 378.935 614.634 379.019 614.593 379.019C614.121 380.139 613.857 381.29 613.413 382.409C614.024 383.085 614.634 383.761 615.217 384.447C616.3 385.714 617.313 387.003 618.299 388.302C618.375 388.328 618.439 388.371 618.481 388.426C618.523 388.481 618.542 388.545 618.535 388.608C620.214 390.826 621.824 393.075 623.393 395.335C623.393 395.419 623.295 395.482 623.24 395.409C621.658 393.17 619.895 390.984 618.077 388.84C617.794 388.769 617.5 388.726 617.202 388.714L616.286 388.555C615.592 388.45 614.898 388.312 614.232 388.186C612.844 387.922 611.539 387.679 610.165 387.499C610.054 387.499 610.165 387.362 610.165 387.372C611.775 387.605 613.399 387.742 615.023 387.89C615.8 387.953 616.564 388.027 617.327 388.122H617.438C616.48 387.066 615.509 385.915 614.523 384.838C613.538 383.761 612.566 382.726 611.567 381.67C610.637 381.564 609.721 381.385 608.791 381.248L605.696 380.794C603.641 380.487 601.532 380.128 599.505 379.875C599.533 379.917 599.616 379.79 599.699 379.801Z" fill="#263238"/>
<path d="M615.717 380.878C615.842 380.593 615.953 380.297 616.078 380.012C616.324 379.408 616.528 378.795 616.688 378.175C616.688 378.09 616.883 378.175 616.855 378.175C616.689 378.787 616.494 379.41 616.3 380.023C616.139 380.642 615.906 381.25 615.606 381.839C615.6 381.854 615.591 381.869 615.578 381.881C615.566 381.894 615.55 381.904 615.532 381.912C615.514 381.92 615.494 381.925 615.473 381.927C615.453 381.929 615.432 381.928 615.412 381.924C615.391 381.919 615.373 381.912 615.356 381.903C615.34 381.893 615.326 381.881 615.316 381.867C615.305 381.853 615.299 381.838 615.296 381.823C615.294 381.807 615.295 381.791 615.3 381.776C615.412 381.501 615.578 381.216 615.717 380.878Z" fill="#263238"/>
<path d="M596.979 377.267C598.186 377.404 599.422 377.478 600.643 377.552C601.865 377.626 603.086 377.763 604.308 377.911C604.308 377.911 604.377 377.995 604.308 377.985C603.086 377.921 601.865 377.847 600.643 377.731C599.422 377.615 598.214 377.467 596.993 377.404C596.84 377.404 596.84 377.256 596.979 377.267Z" fill="#263238"/>
<path d="M566.915 393.286C567.387 385.229 568.067 377.182 569.122 369.167C569.649 365.165 570.246 361.173 570.982 357.192C571.643 353.271 572.658 349.39 574.021 345.576C574.963 342.618 576.687 339.837 579.088 337.402C580.276 336.222 581.84 335.29 583.632 334.695C585.424 334.101 587.385 333.862 589.331 334.002C593.967 334.446 597.659 336.663 600.921 339.082C604.543 341.785 607.861 344.742 611.206 347.635C612.066 348.364 612.899 349.103 613.732 349.853C613.739 349.859 613.745 349.866 613.749 349.874C613.752 349.882 613.754 349.89 613.753 349.899C613.752 349.907 613.75 349.915 613.745 349.923C613.74 349.93 613.733 349.937 613.725 349.942C613.717 349.948 613.707 349.952 613.697 349.955C613.687 349.958 613.676 349.959 613.665 349.958C613.654 349.958 613.643 349.956 613.633 349.952C613.623 349.949 613.614 349.943 613.607 349.937C610.331 347.075 606.917 344.288 603.364 341.626C600.06 339.166 596.674 336.484 592.107 335.459C589.987 334.946 587.719 334.906 585.57 335.343C583.866 335.743 582.326 336.47 581.1 337.455C578.633 339.62 576.89 342.207 576.02 344.995C573.244 352.387 572.161 360.159 571.093 367.805C570.024 375.45 569.302 383.37 568.789 391.174C568.275 398.978 567.873 406.866 566.873 414.681C566.748 415.652 566.582 416.613 566.429 417.574C566.318 418.218 565.041 418.218 565.041 417.574C565.957 409.464 566.443 401.385 566.915 393.286Z" fill="#263238"/>
<path d="M601.504 340.032C601.504 340.032 595.452 331.521 602.6 328.786C609.749 326.051 633.664 346.368 640.645 376.063C640.645 376.063 602.017 363.063 588.915 350.106C575.812 337.149 590.664 334.256 601.504 340.032Z" fill="#FFF527"/>
<path d="M595.827 346.917C600.171 346.917 604.502 346.664 608.833 346.685L606.39 344.573C605.176 343.63 604.044 342.629 603.003 341.574C602.934 341.51 603.072 341.405 603.156 341.457C604.334 342.231 605.434 343.071 606.445 343.971C607.528 344.847 608.61 345.724 609.679 346.611C611.345 347.984 612.969 349.367 614.593 350.761C614.593 350.624 614.593 350.486 614.593 350.36C614.593 349.779 614.593 349.198 614.593 348.628V345.259C614.593 342.989 614.593 340.708 614.357 338.448C614.364 338.434 614.376 338.422 614.392 338.414C614.409 338.406 614.428 338.401 614.447 338.401C614.466 338.401 614.485 338.406 614.501 338.414C614.518 338.422 614.53 338.434 614.537 338.448C614.745 340.729 615.051 342.989 615.203 345.28C615.268 346.4 615.31 347.519 615.328 348.638C615.328 349.219 615.328 349.789 615.328 350.37C615.328 350.687 615.328 351.025 615.328 351.342L616.092 351.996C619.562 355.006 622.851 358.121 626.058 361.289C626.058 361.11 626.058 360.93 626.058 360.761C626.058 360.413 626.155 360.064 626.21 359.705C626.321 358.945 626.46 358.195 626.613 357.435C626.765 356.674 626.89 356.02 627.057 355.323C627.223 354.626 627.487 353.728 627.571 352.926C627.571 352.831 627.765 352.852 627.737 352.926C627.554 353.726 627.434 354.533 627.376 355.344C627.279 356.072 627.196 356.801 627.112 357.519C627.029 358.237 626.932 358.976 626.835 359.705C626.835 360.054 626.752 360.402 626.696 360.761C626.682 360.938 626.654 361.115 626.613 361.289C626.596 361.435 626.534 361.576 626.432 361.701L628.084 363.348C630.277 365.555 632.429 367.784 634.58 370.012C634.58 370.075 634.51 370.17 634.441 370.096C632.415 368.079 630.277 366.094 628.195 364.13C626.599 364.183 624.975 364.13 623.393 364.077H618.368C618.35 364.071 618.335 364.062 618.324 364.05C618.313 364.038 618.307 364.023 618.307 364.008C618.307 363.994 618.313 363.979 618.324 363.967C618.335 363.955 618.35 363.945 618.368 363.94C620.048 363.94 621.713 363.94 623.393 363.94C625.072 363.94 626.474 363.94 628.001 363.94C626.141 362.218 624.253 360.497 622.366 358.786L620.297 356.928C619.653 356.993 619.003 357.011 618.354 356.981H616.078C614.69 356.981 613.219 356.981 611.789 356.981C608.846 356.981 605.904 356.875 602.947 356.864C602.836 356.864 602.836 356.727 602.947 356.727C605.89 356.727 608.846 356.611 611.789 356.548C613.177 356.548 614.648 356.484 616.078 356.474H618.368C618.798 356.474 619.243 356.474 619.756 356.474L614.884 352.007C614.845 351.991 614.816 351.964 614.801 351.933C613.219 350.507 611.636 349.092 610.026 347.709L609.374 347.139C604.863 347.244 600.38 347.012 595.882 347.086C595.853 347.092 595.822 347.088 595.796 347.076C595.77 347.064 595.751 347.045 595.744 347.023C595.736 347 595.741 346.976 595.757 346.957C595.772 346.937 595.797 346.923 595.827 346.917Z" fill="#263238"/>
<path d="M598.048 352.757H599.103C599.125 352.757 599.146 352.763 599.161 352.775C599.177 352.787 599.186 352.803 599.186 352.82C599.186 352.837 599.177 352.853 599.161 352.865C599.146 352.876 599.125 352.883 599.103 352.883H598.062C598.046 352.878 598.033 352.869 598.024 352.858C598.014 352.848 598.009 352.836 598.007 352.823C598.006 352.81 598.009 352.797 598.016 352.786C598.023 352.774 598.034 352.764 598.048 352.757Z" fill="#263238"/>
<path d="M600.379 352.767L604.543 352.693H606.625C607.27 352.63 607.924 352.63 608.569 352.693C608.638 352.693 608.569 352.777 608.569 352.798C607.93 352.898 607.276 352.93 606.625 352.893H604.53H600.366C600.352 352.886 600.341 352.876 600.334 352.864C600.327 352.852 600.324 352.84 600.325 352.827C600.326 352.814 600.332 352.802 600.342 352.791C600.351 352.781 600.364 352.772 600.379 352.767Z" fill="#263238"/>
<path d="M612.525 362.683C615.346 362.323 618.2 362.125 621.061 362.092V362.145C618.285 362.345 615.384 362.461 612.566 362.81C612.455 362.831 612.414 362.694 612.525 362.683Z" fill="#263238"/>
<path d="M624.142 353.232L624.225 352.662C624.225 352.239 624.392 351.806 624.475 351.384C624.642 350.581 624.822 349.779 625.03 348.976C625.03 348.902 625.211 348.924 625.197 348.976C625.072 349.8 624.947 350.634 624.85 351.468C624.85 351.88 624.753 352.292 624.711 352.693C624.73 353.088 624.655 353.481 624.489 353.855C624.472 353.882 624.445 353.904 624.412 353.92C624.379 353.936 624.341 353.944 624.302 353.944C624.263 353.944 624.224 353.936 624.191 353.92C624.158 353.904 624.131 353.882 624.114 353.855C624.064 353.648 624.073 353.436 624.142 353.232Z" fill="#263238"/>
<path d="M567.303 329.06C568.691 327.096 570.44 324.509 573.883 324.678C576.742 324.815 578.047 327.022 578.63 328.902C580.517 334.562 580.642 340.518 581.017 346.315C581.78 358.565 582.488 370.825 582.585 383.096C582.585 386.496 582.585 389.893 582.585 393.286C582.585 396.76 582.585 400.245 582.266 403.709C582.25 403.769 582.208 403.822 582.146 403.861C582.084 403.899 582.006 403.92 581.926 403.92C581.846 403.92 581.768 403.899 581.706 403.861C581.644 403.822 581.602 403.769 581.586 403.709C581.586 400.752 581.711 397.785 581.725 394.817C581.739 391.85 581.725 389.03 581.641 386.137C581.521 380.28 581.318 374.419 581.031 368.555C580.739 362.736 580.406 356.939 580.087 351.088C579.92 348.184 579.768 345.27 579.587 342.366C579.407 339.462 579.268 336.727 578.838 333.918C578.602 332.355 578.296 330.75 577.866 329.229C577.656 328.071 577.043 326.978 576.089 326.061C575.43 325.566 574.561 325.267 573.637 325.216C572.713 325.166 571.796 325.368 571.051 325.787C569.477 326.645 568.239 327.813 567.47 329.166C567.401 329.208 567.248 329.134 567.303 329.06Z" fill="#263238"/>
<path d="M568.234 328.12C568.234 328.12 571.01 320.496 564.791 324.308C554.354 330.644 553.979 344.457 553.979 344.457C553.979 344.457 572.55 336.251 574.799 330.845C578.297 322.787 568.234 328.12 568.234 328.12Z" fill="#FFF527"/>
<path d="M557.893 338.796C558.059 338.585 558.24 338.385 558.42 338.173C558.393 337.956 558.393 337.736 558.42 337.519C558.42 337.191 558.42 336.864 558.42 336.537C558.42 335.889 558.393 335.245 558.337 334.604C558.337 334.52 558.504 334.52 558.517 334.604C558.517 335.227 558.587 335.861 558.615 336.494V337.445C558.615 337.571 558.615 337.709 558.615 337.846C559.336 336.991 560.086 336.135 560.863 335.301L561.543 334.583C561.641 333.754 561.641 332.92 561.543 332.091C561.543 331.204 561.543 330.317 561.474 329.43C561.474 329.345 561.654 329.356 561.654 329.43C561.654 330.348 561.752 331.267 561.807 332.186C561.856 332.844 561.856 333.503 561.807 334.161C563.611 332.313 565.513 330.517 567.428 328.743C567.498 328.68 567.637 328.743 567.567 328.828C566.374 329.979 565.235 331.151 564.111 332.344C566.304 331.954 568.525 331.732 570.746 331.489C570.857 331.489 570.898 331.605 570.746 331.616C568.386 331.89 566.082 332.334 563.806 332.724C562.917 333.675 562.043 334.636 561.169 335.597L560.114 336.769H560.211L560.933 336.695L562.473 336.589C563.542 336.526 564.625 336.484 565.693 336.442C565.804 336.442 565.804 336.568 565.693 336.579C564.639 336.579 563.598 336.653 562.543 336.737L560.891 336.896L560.155 336.959H559.947L558.157 338.965C557.116 340.137 556.186 341.405 555.061 342.545C555.048 342.559 555.029 342.569 555.007 342.572C554.985 342.575 554.962 342.571 554.943 342.561C554.925 342.551 554.912 342.536 554.909 342.519C554.905 342.503 554.91 342.485 554.923 342.471C555.818 341.204 556.81 339.977 557.893 338.796Z" fill="#263238"/>
<path d="M562.515 330.19C562.515 329.894 562.515 329.599 562.515 329.303C562.538 328.679 562.506 328.054 562.418 327.434C562.418 327.328 562.598 327.318 562.598 327.434C562.598 328.057 562.681 328.669 562.723 329.292C562.723 329.599 562.723 329.905 562.723 330.211C562.723 330.359 562.723 330.496 562.723 330.644C562.758 330.791 562.758 330.941 562.723 331.088C562.717 331.099 562.706 331.108 562.692 331.115C562.679 331.122 562.663 331.126 562.647 331.126C562.631 331.126 562.615 331.122 562.601 331.115C562.588 331.108 562.577 331.099 562.57 331.088C562.543 330.955 562.543 330.819 562.57 330.686C562.515 330.528 562.515 330.338 562.515 330.19Z" fill="#263238"/>
<path d="M564.805 333.348C565.499 333.253 566.193 333.231 566.901 333.179C567.609 333.126 568.428 333.084 569.191 333.01C569.206 333.005 569.222 333.004 569.238 333.005C569.253 333.006 569.268 333.01 569.282 333.017C569.295 333.024 569.306 333.033 569.313 333.044C569.32 333.054 569.324 333.066 569.324 333.078C569.324 333.09 569.32 333.102 569.313 333.113C569.306 333.124 569.295 333.133 569.282 333.14C569.268 333.146 569.253 333.151 569.238 333.152C569.222 333.153 569.206 333.151 569.191 333.147C567.803 333.21 566.276 333.411 564.805 333.453C564.787 333.453 564.769 333.448 564.756 333.438C564.743 333.428 564.736 333.414 564.736 333.4C564.736 333.386 564.743 333.373 564.756 333.363C564.769 333.353 564.787 333.348 564.805 333.348Z" fill="#263238"/>
<path d="M566.859 369.727C570.774 367.499 574.271 364.299 579.518 364.14C583.862 364.003 586.888 366.485 588.637 369.252C589.503 370.723 590.213 372.245 590.761 373.803C591.538 375.915 592.274 378.027 592.968 380.139C594.328 384.278 595.485 388.453 596.438 392.663C596.965 395.007 597.465 397.362 597.826 399.728C598.32 402.119 598.621 404.531 598.728 406.951C598.727 407.041 598.683 407.128 598.603 407.195C598.524 407.262 598.416 407.304 598.298 407.315C598.18 407.325 598.062 407.302 597.965 407.251C597.867 407.199 597.798 407.123 597.77 407.035C597.243 405.06 597.021 403.022 596.632 401.027C596.243 399.031 595.855 397.014 595.397 395.007C594.508 391.016 593.481 387.024 592.301 383.075C591.177 379.336 590.081 375.545 588.484 371.902C587.36 369.294 585.528 366.252 581.836 365.313C576.201 363.887 571.079 367.509 566.957 369.864C566.901 369.875 566.776 369.779 566.859 369.727Z" fill="#263238"/>
<path d="M570.899 367.594C570.899 367.594 574.507 359.779 569.302 358.248C561.502 355.946 541.084 373.444 545.082 400.245C554.713 396.142 563.881 391.441 572.495 386.19C584.14 378.798 587.124 369.04 582.003 366.538C576.881 364.035 570.899 367.594 570.899 367.594Z" fill="#FFF527"/>
<path d="M547.441 394.5C547.979 393.564 548.61 392.66 549.329 391.797C550.009 390.878 550.717 389.96 551.369 389.062C552.757 387.298 554.076 385.524 555.464 383.782L556.144 382.937L556.061 382.631C555.977 382.367 555.908 382.113 555.825 381.849C555.658 381.269 555.519 380.677 555.381 380.096C555.103 378.945 554.839 377.784 554.423 376.664C554.423 376.58 554.575 376.548 554.603 376.664C554.922 377.816 555.394 378.945 555.852 380.065C556.061 380.614 556.297 381.121 556.491 381.723C556.56 381.913 556.63 382.113 556.685 382.304C558.365 380.192 560.072 378.132 561.904 376.115C561.787 375.839 561.726 375.55 561.724 375.26C561.724 374.869 561.613 374.479 561.543 374.077C561.418 373.201 561.28 372.324 561.113 371.437C560.78 369.716 560.433 367.995 559.878 366.305C559.878 366.221 560.016 366.2 560.044 366.305C560.613 367.995 561.224 369.674 561.64 371.395C561.849 372.229 562.043 373.074 562.196 373.919C562.196 374.341 562.32 374.764 562.39 375.186C562.39 375.313 562.39 375.45 562.39 375.577C562.959 374.964 563.528 374.362 564.111 373.771C565.915 371.965 567.789 370.202 569.663 368.491C569.746 368.428 569.885 368.491 569.816 368.576C566.587 371.713 563.625 375.004 560.946 378.428L559.406 380.318H559.919C560.572 380.255 561.307 380.223 561.904 380.17L565.888 379.906C568.553 379.748 571.218 379.621 573.855 379.41C573.98 379.41 574.007 379.537 573.855 379.537C571.162 379.78 568.497 380.107 565.818 380.392C564.43 380.54 563.181 380.667 561.862 380.793C560.862 380.951 559.844 381.033 558.823 381.036L555.686 384.901C555.922 384.901 556.172 384.901 556.394 384.901H560.197C561.904 384.901 563.611 384.901 565.332 384.901C565.443 384.901 565.43 385.039 565.332 385.039C563.597 385.039 561.876 385.123 560.141 385.197L557.685 385.303L556.449 385.376C556.092 385.431 555.724 385.431 555.367 385.376L552.702 388.661C551.883 389.717 551.064 390.688 550.217 391.691C549.425 392.758 548.529 393.778 547.538 394.743C547.538 394.627 547.4 394.585 547.441 394.5Z" fill="#263238"/>
<path d="M554.95 372.831C555.11 373.694 555.346 374.548 555.658 375.387C555.95 376.253 556.283 377.108 556.657 377.963C556.667 377.986 556.664 378.01 556.649 378.031C556.635 378.052 556.611 378.067 556.581 378.074C556.552 378.081 556.52 378.079 556.492 378.068C556.465 378.057 556.445 378.039 556.435 378.016C556.088 377.171 555.783 376.316 555.505 375.461C555.228 374.605 555.047 373.718 554.784 372.863C554.756 372.768 554.936 372.768 554.95 372.831Z" fill="#263238"/>
<path d="M566.54 378.048C566.778 377.89 567.084 377.803 567.401 377.805L568.886 377.647L571.662 377.393C573.591 377.224 575.507 377.076 577.436 376.897C577.547 376.897 577.575 377.024 577.436 377.034C575.618 377.203 573.813 377.404 572.009 377.583C571.12 377.678 570.232 377.773 569.344 377.847L568.067 377.964C567.565 377.957 567.066 378.022 566.596 378.154C566.54 378.206 566.485 378.122 566.54 378.048Z" fill="#263238"/>
<path d="M554.978 389.854C555.894 389.801 556.81 389.77 557.754 389.749H559.142H559.808C560.094 389.77 560.383 389.77 560.669 389.749C560.794 389.749 560.808 389.907 560.669 389.886C560.401 389.865 560.131 389.865 559.864 389.886H559.156L557.768 389.949C556.852 389.949 555.936 390.034 554.992 390.034C554.976 390.034 554.961 390.033 554.946 390.029C554.931 390.025 554.918 390.019 554.906 390.011C554.895 390.003 554.885 389.994 554.879 389.983C554.872 389.973 554.868 389.961 554.867 389.949C554.866 389.937 554.868 389.926 554.873 389.914C554.878 389.903 554.886 389.893 554.897 389.884C554.907 389.875 554.919 389.868 554.933 389.863C554.947 389.858 554.962 389.855 554.978 389.854Z" fill="#263238"/>
<path d="M549.426 386.855C549.315 386.464 549.218 386.074 549.121 385.683C548.94 384.901 548.746 384.13 548.565 383.36C548.565 383.275 548.718 383.254 548.746 383.36L549.412 385.619C549.523 385.989 549.634 386.369 549.731 386.749C549.731 386.918 549.829 387.098 549.884 387.267C549.955 387.448 549.979 387.638 549.953 387.826C549.953 387.89 549.815 387.932 549.759 387.826C549.574 387.52 549.461 387.191 549.426 386.855Z" fill="#263238"/>
<path d="M553.812 409.95L554.298 420.943L557.282 462.443H605.862L608.832 420.943L609.318 409.95H553.812Z" fill="#37474F"/>
<path d="M553.812 409.95L554.298 420.943H608.832L609.318 409.95H553.812Z" fill="#263238"/>
<path d="M547.455 413.202H615.675V402.114H547.455V413.202Z" fill="#37474F"/>
<path d="M52.9521 462.37L126.461 462.106L199.969 462.021L347 461.842L494.031 462.011L567.539 462.106L641.062 462.37L567.539 462.623L494.031 462.718L347 462.898L199.969 462.718L126.461 462.623L52.9521 462.37Z" fill="#263238"/>
<path d="M562.168 187.683L117.842 462.37H60.9058V414.205H123.893V375.26H186.895V336.325H249.882V297.38H312.869V258.435H375.885V219.49H438.872V180.544L501.859 141.61V141.599L505.232 139.519L562.168 187.683Z" fill="#FFF527"/>
<path opacity="0.1" d="M562.168 187.683L117.842 462.37H60.9058V414.205H123.893V375.26H186.895V336.325H249.882V297.38H312.869V258.435H375.885V219.49H438.872V180.544L501.859 141.61V141.599L505.232 139.519L562.168 187.683Z" fill="black"/>
<path d="M546.955 237.093L513.13 176.32L432.765 143.701L633.109 102.147L546.955 237.093Z" fill="#FFF527"/>
<g opacity="0.1">
<path d="M546.955 237.093L513.13 176.32L432.765 143.701L633.109 102.147L546.955 237.093Z" fill="black"/>
</g>
<g opacity="0.1">
<path d="M145.532 375.26H123.893V414.195H145.532V375.26Z" fill="black"/>
<path d="M208.533 336.325H186.894V375.26H208.533V336.325Z" fill="black"/>
<path d="M271.534 297.38H249.896V336.315H271.534V297.38Z" fill="black"/>
<path d="M334.536 258.446H312.897V297.38H334.536V258.446Z" fill="black"/>
<path d="M397.537 219.511H375.898V258.445H397.537V219.511Z" fill="black"/>
<path d="M460.552 219.511H438.913V180.566L460.552 167.144V219.511Z" fill="black"/>
<path d="M82.5305 414.195H60.8916V462.37H82.5305V414.195Z" fill="black"/>
</g>
<path d="M176.873 95.9482C148.169 99.3168 119.812 106.149 116.203 112.327C111.359 120.637 112.858 142.106 114.982 153.194C115.607 156.446 148.835 152.233 148.169 148.748C147.364 144.524 142.756 122.813 142.853 122.348C143.047 121.451 171.099 107.649 177.9 104.47C189.282 99.264 189.615 94.4592 176.873 95.9482Z" fill="#D3766A"/>
<path d="M119.368 169.699C115.954 164.852 114.205 152.909 115.204 149.952C116.203 146.995 142.853 144.007 145.865 146.224C148.877 148.442 158.482 165.422 157.08 170.903C155.678 176.384 122.769 174.726 119.368 169.699Z" fill="#D3766A"/>
<path d="M157.038 162.086C153.777 160.586 153.318 164.377 153.318 164.377C153.318 164.377 152.25 158.801 148.1 158.252C143.949 157.703 143.755 162.307 143.727 162.635C143.727 162.339 142.506 157.249 138.259 157.017C134.011 156.784 134.553 161.431 134.594 161.726C134.428 161.462 132.082 157.999 128.806 158.379C123.171 159.044 128.806 168.02 127.127 171.283C127.127 171.283 119.535 169.71 119.299 169.699C119.299 169.699 124.462 178.327 130.403 179.837C131.258 180.068 132.191 180.069 133.047 179.841C133.903 179.612 134.63 179.167 135.108 178.58C135.108 178.58 136.371 181.505 139.702 181.748C141.423 181.875 143.214 179.911 143.214 179.911C143.547 180.565 144.113 181.136 144.849 181.559C145.584 181.982 146.46 182.242 147.378 182.308C149.751 182.392 151.195 180.407 151.195 180.407C151.195 180.407 153.638 182.234 156.108 181.717C161.008 180.692 164.02 165.306 157.038 162.086Z" fill="#D3766A"/>
<path d="M151.431 180.143C151.431 180.143 151.5 180.217 151.528 180.143C154.259 175.076 154.903 169.497 153.374 164.145C153.374 163.976 152.93 163.976 152.944 164.145C153.461 169.505 152.951 174.894 151.431 180.143Z" fill="#263238"/>
<path d="M143.214 180.016C143.214 180.069 143.325 180.101 143.353 180.016C146.294 174.407 146.505 168.183 143.95 162.466C143.852 162.276 143.505 162.17 143.589 162.402C145.088 166.362 144.741 175.117 143.214 180.016Z" fill="#263238"/>
<path d="M134.22 161.378C136.649 166.985 136.482 172.614 135.205 178.38C135.205 178.454 135.33 178.464 135.372 178.38C136.996 175.687 137.301 171.949 137.218 169.024C137.199 166.306 136.242 163.64 134.442 161.294C134.4 161.22 134.164 161.262 134.22 161.378Z" fill="#263238"/>
<path d="M153.319 164.377C152.977 163.323 152.513 162.295 151.931 161.304C151.412 160.327 150.565 159.471 149.474 158.822C148.954 158.551 148.322 158.435 147.697 158.495C147.062 158.56 146.459 158.749 145.948 159.044C145.47 159.367 145.087 159.764 144.826 160.208C144.565 160.653 144.432 161.134 144.435 161.621L144.297 163.997L143.339 161.737C142.928 160.725 142.3 159.772 141.479 158.917C141.132 158.503 140.675 158.149 140.137 157.878C139.599 157.607 138.992 157.425 138.356 157.344C137.772 157.289 137.181 157.386 136.677 157.617C136.174 157.849 135.787 158.203 135.58 158.622C135.145 159.585 135.035 160.617 135.261 161.621L135.76 164.409L134.095 161.917C133.627 161.221 133.049 160.572 132.374 159.984C131.755 159.411 130.93 158.989 130 158.77C129.575 158.684 129.128 158.692 128.708 158.791C128.288 158.89 127.914 159.076 127.627 159.329C127.092 159.959 126.808 160.692 126.808 161.441C126.777 163.073 126.912 164.704 127.21 166.32C127.321 167.144 127.432 167.967 127.502 168.791C127.627 169.619 127.518 170.458 127.183 171.252C127.39 170.446 127.39 169.618 127.183 168.812C127.044 167.999 126.849 167.186 126.655 166.383C126.194 164.748 125.943 163.082 125.906 161.41C125.855 160.507 126.16 159.614 126.78 158.844C127.175 158.45 127.712 158.152 128.326 157.987C128.94 157.822 129.604 157.796 130.236 157.914C131.412 158.167 132.461 158.682 133.248 159.393C134.027 160.026 134.69 160.736 135.219 161.505L134.053 161.8C133.755 160.616 133.87 159.392 134.386 158.252C134.699 157.624 135.287 157.098 136.052 156.763C136.813 156.455 137.679 156.33 138.536 156.404C139.342 156.501 140.113 156.726 140.797 157.064C141.481 157.403 142.063 157.847 142.506 158.368C143.403 159.329 144.075 160.401 144.491 161.536L143.394 161.642C143.423 161.038 143.626 160.446 143.988 159.908C144.35 159.369 144.863 158.898 145.49 158.527C146.146 158.185 146.906 157.978 147.697 157.925C148.484 157.878 149.267 158.046 149.904 158.4C151.039 159.141 151.876 160.111 152.319 161.198C152.805 162.227 153.14 163.293 153.319 164.377Z" fill="#263238"/>
<path d="M148.197 148.896C148.197 148.896 171.89 163.543 159.828 167.788C156.233 169.044 139.536 170.956 139.008 168.421C138.273 165.137 145.046 163.342 149.529 162.73C149.529 162.73 140.549 158.611 142.465 153.004C142.834 151.985 143.563 151.063 144.574 150.339C145.585 149.615 146.838 149.115 148.197 148.896Z" fill="#D3766A"/>
<path d="M160.8 167.334C159.472 167.955 158.032 168.424 156.525 168.728C155.027 169.06 153.502 169.314 151.958 169.488C148.872 169.882 145.746 170.069 142.617 170.048C141.789 170.043 140.966 169.947 140.174 169.763C139.716 169.654 139.294 169.47 138.939 169.224C138.743 169.092 138.578 168.935 138.453 168.759C138.336 168.583 138.252 168.394 138.203 168.2C138.062 167.495 138.259 166.775 138.759 166.172C139.225 165.625 139.812 165.143 140.494 164.747C141.797 164.017 143.258 163.467 144.81 163.12C146.307 162.751 147.838 162.468 149.391 162.276L149.224 163.036C148.229 162.538 147.299 161.969 146.448 161.336C145.588 160.713 144.811 160.027 144.13 159.287C143.463 158.539 142.944 157.721 142.589 156.858C142.235 156.002 142.098 155.103 142.187 154.208C142.249 155.086 142.508 155.95 142.95 156.763C143.395 157.558 143.979 158.304 144.685 158.981C145.389 159.659 146.179 160.281 147.045 160.839C147.905 161.402 148.835 161.901 149.821 162.328L151.028 162.846L149.64 163.089C148.153 163.316 146.688 163.619 145.254 163.997C143.853 164.345 142.532 164.858 141.34 165.518C140.784 165.783 140.327 166.153 140.011 166.591C139.696 167.029 139.532 167.521 139.536 168.02C139.633 168.823 141.299 169.076 142.742 169.076C144.263 169.134 145.787 169.134 147.309 169.076C148.849 169.076 150.376 168.971 151.903 168.844C154.954 168.699 157.957 168.189 160.8 167.334Z" fill="#263238"/>
<path d="M149.293 147.925L111.942 147.513C111.942 147.513 109.166 117.374 117.286 110.669C122.727 106.181 151.778 97.8174 171.835 95.8849C191.891 93.9524 191.669 98.7889 174.264 107.089C156.858 115.389 144.047 122.253 144.047 122.676C144.047 123.098 149.293 147.925 149.293 147.925Z" fill="#FFF527"/>
<path d="M144.352 119.127C143.741 117.808 143.741 116.37 144.352 115.051C144.981 116.368 144.981 117.811 144.352 119.127ZM113.094 129.687C113.112 128.991 112.952 128.299 112.622 127.649C111.993 128.966 111.993 130.409 112.622 131.726C112.935 131.066 113.072 130.366 113.025 129.666L113.094 129.687ZM159.426 113.626C159.758 113.727 160.102 113.805 160.453 113.858L161.605 113.277C160.836 113.288 160.076 113.399 159.356 113.605L159.426 113.626ZM141.049 132.222C141.959 132.231 142.863 132.11 143.714 131.863C142.865 131.611 141.959 131.489 141.049 131.504C140.134 131.494 139.225 131.616 138.37 131.863C139.207 132.091 140.09 132.205 140.979 132.201L141.049 132.222ZM118.466 113.964C119.377 113.978 120.282 113.856 121.131 113.605C120.282 113.353 119.377 113.231 118.466 113.246C117.551 113.235 116.642 113.357 115.787 113.605C116.644 113.847 117.552 113.969 118.466 113.964ZM122.63 139.751C121.999 139.25 121.244 138.848 120.409 138.568C120.785 139.203 121.317 139.777 121.977 140.258C122.615 140.754 123.368 141.155 124.198 141.441C123.823 140.806 123.29 140.233 122.63 139.751ZM134.497 107.459C133.862 106.959 133.108 106.554 132.276 106.265C132.644 106.901 133.172 107.475 133.831 107.955C134.464 108.457 135.218 108.862 136.052 109.148C135.676 108.517 135.149 107.944 134.497 107.459ZM176.831 103.837C177.116 104.335 177.505 104.795 177.983 105.199C178.247 105.062 178.497 104.935 178.733 104.798C178.175 104.398 177.532 104.073 176.831 103.837ZM135.719 146.383C135.169 146.786 134.701 147.248 134.331 147.756H134.928C135.428 147.5 135.893 147.206 136.316 146.879C136.973 146.398 137.501 145.824 137.87 145.19C137.063 145.483 136.333 145.888 135.719 146.383ZM154.72 104.206C154.06 104.692 153.528 105.269 153.152 105.906C154.813 105.305 156.151 104.287 156.941 103.023C156.111 103.309 155.358 103.71 154.72 104.206ZM126.96 123.985C126.301 124.465 125.773 125.039 125.406 125.675C127.069 125.085 128.406 124.068 129.181 122.802C128.343 123.083 127.584 123.485 126.947 123.985H126.96Z" fill="white"/>
<path d="M145.74 142.676C145.851 142.676 145.851 142.539 145.74 142.528C135.347 141.775 124.909 141.433 114.469 141.504C114.357 141.504 114.357 141.641 114.469 141.652C124.862 142.411 135.3 142.753 145.74 142.676Z" fill="#263238"/>
<path opacity="0.1" d="M174.263 107.057C156.844 115.347 144.047 122.222 144.047 122.644C144.047 123.066 149.293 147.925 149.293 147.925L111.942 147.513C111.942 147.513 111.443 142.117 111.484 135.39L182.675 95.5681C190.822 96.3812 187.56 100.721 174.263 107.057Z" fill="black"/>
<path d="M267.176 336.621C264.622 337.265 191.877 336.832 189.115 335.47C188.06 334.974 195.875 285.838 195.875 285.838L242.692 286.176L234.156 317.36C234.156 317.36 261.916 327.001 264.692 328.733C267.468 330.465 269.716 335.998 267.176 336.621Z" fill="#D3766A"/>
<path d="M267.176 336.621C264.622 337.265 191.877 336.832 189.115 335.47C188.602 335.227 190.198 323.4 191.961 311.351H235.794L234.156 317.317C234.156 317.317 261.916 326.959 264.692 328.691C267.468 330.422 269.716 335.998 267.176 336.621Z" fill="#EBEBEB"/>
<path d="M268.245 336.864C265.65 337.529 191.53 337.508 188.713 336.135C187.63 335.628 190.684 316.99 190.684 316.884L234.447 316.768V317.391C234.447 317.391 262.818 327.054 265.705 328.807C268.592 330.56 270.841 336.199 268.245 336.864Z" fill="#FFF527"/>
<path d="M267.412 334.668C254.92 334.435 204.494 334.372 192.113 334.858C192.016 334.858 192.016 334.858 192.113 334.921C204.494 335.354 254.92 335.111 267.412 334.826C267.676 334.815 267.676 334.678 267.412 334.668Z" fill="#263238"/>
<path d="M239.763 316.863C234.85 316.166 228.84 316.737 225.078 319.398C224.926 319.503 225.078 319.662 225.286 319.62C229.987 318.469 234.835 317.704 239.749 317.339C239.821 317.328 239.887 317.3 239.934 317.257C239.981 317.215 240.008 317.161 240.01 317.105C240.011 317.05 239.988 316.995 239.943 316.951C239.898 316.907 239.835 316.876 239.763 316.863Z" fill="#263238"/>
<path d="M243.317 318.49C238.389 317.793 232.379 318.363 228.618 321.024C228.479 321.13 228.618 321.288 228.826 321.246C233.526 320.096 238.375 319.332 243.289 318.965C243.361 318.956 243.428 318.928 243.476 318.887C243.525 318.845 243.554 318.792 243.557 318.736C243.56 318.68 243.538 318.625 243.494 318.58C243.45 318.535 243.388 318.503 243.317 318.49Z" fill="#263238"/>
<path d="M246.856 320.126C241.942 319.419 235.932 319.989 232.171 322.661C232.018 322.756 232.171 322.914 232.379 322.883C237.079 321.729 241.928 320.961 246.842 320.591C246.923 320.593 247.001 320.569 247.06 320.527C247.118 320.484 247.152 320.426 247.154 320.364C247.156 320.302 247.126 320.243 247.07 320.198C247.014 320.154 246.937 320.128 246.856 320.126Z" fill="#263238"/>
<path d="M238.25 316.452L189.171 316.251C189.171 316.251 203.62 238.899 202.371 235.71C201.871 234.474 148.71 195.212 148.71 195.212C127.53 179.319 133.887 153.68 133.887 153.68H194.959C194.959 153.68 192.183 165.011 195.333 167.482C199.192 170.481 245.301 208.328 251.298 220.387C259.362 236.544 238.25 316.452 238.25 316.452Z" fill="#37474F"/>
<path d="M237.626 309.049C230.075 308.679 232.254 308.69 224.69 308.394C220.998 308.257 196.708 307.338 193.224 307.771C193.154 307.771 193.14 307.898 193.224 307.919C196.652 308.553 220.984 309.07 224.662 309.144C232.213 309.302 230.047 309.144 237.612 309.26C237.751 309.26 237.765 309.06 237.626 309.049Z" fill="#263238"/>
<path d="M197.984 169.583L174.888 214.6C161.716 204.769 148.78 195.212 148.78 195.212C127.599 179.319 133.956 153.68 133.956 153.68H195.028C195.028 153.68 192.252 165.011 195.403 167.482C195.791 167.809 196.694 168.527 197.984 169.583Z" fill="#263238"/>
<path d="M156.955 375.588C154.304 375.831 83.1412 364.288 80.7955 362.535C79.8933 361.881 81.5034 353.897 83.8074 344.288C83.8074 344.193 83.8074 344.087 83.8074 343.992C84.2794 342.007 96.813 308.88 96.813 308.88L143.186 317.191L129.834 351.046L129.639 351.638C129.639 351.638 154.29 365.366 156.594 367.478C158.898 369.59 159.62 375.366 156.955 375.588Z" fill="#D3766A"/>
<path d="M156.955 375.588C154.304 375.831 83.1412 364.288 80.7955 362.536C79.8933 361.881 81.5034 353.897 83.8074 344.288C83.8074 344.193 83.8074 344.087 83.8074 343.992C83.9324 343.475 84.8901 340.824 86.2364 337.128L132.304 344.774L129.834 351.046L129.639 351.638C129.639 351.638 154.29 365.366 156.594 367.478C158.898 369.59 159.62 375.366 156.955 375.588Z" fill="#EBEBEB"/>
<path d="M157.635 375.809C154.859 376.042 82.4612 364.193 80.0877 362.366C79.1716 361.701 80.8233 353.57 83.2107 343.781V343.475L130.07 350.75L129.889 351.352C129.889 351.352 155.012 365.376 157.358 367.488C159.703 369.6 160.342 375.577 157.635 375.809Z" fill="#FFF527"/>
<path d="M157.413 373.539C145.268 371.3 95.9941 363.169 83.7658 361.669C83.6548 361.669 83.6409 361.669 83.7658 361.722C95.7442 364.14 145.115 371.965 157.399 373.687C157.635 373.718 157.677 373.581 157.413 373.539Z" fill="#263238"/>
<path d="M135.316 351.701C130.708 350.233 124.67 349.832 120.256 351.828C120.09 351.912 120.256 352.092 120.395 352.081C125.308 351.708 130.259 351.736 135.164 352.166C135.239 352.17 135.314 352.154 135.375 352.12C135.436 352.087 135.48 352.038 135.498 351.982C135.516 351.927 135.508 351.868 135.475 351.816C135.442 351.765 135.385 351.724 135.316 351.701Z" fill="#263238"/>
<path d="M138.328 353.866C133.72 352.387 127.682 351.986 123.268 353.992C123.102 354.066 123.268 354.256 123.421 354.246C128.333 353.869 133.284 353.894 138.189 354.32C138.229 354.327 138.269 354.328 138.309 354.323C138.348 354.318 138.387 354.307 138.421 354.29C138.455 354.274 138.484 354.253 138.508 354.228C138.531 354.203 138.548 354.175 138.557 354.145C138.566 354.116 138.568 354.085 138.561 354.055C138.554 354.024 138.54 353.995 138.519 353.969C138.498 353.943 138.47 353.921 138.437 353.903C138.404 353.885 138.367 353.873 138.328 353.866Z" fill="#263238"/>
<path d="M141.354 356.02C136.746 354.552 130.708 354.151 126.294 356.147C126.114 356.231 126.294 356.411 126.433 356.4C131.346 356.027 136.297 356.055 141.201 356.485C141.277 356.489 141.351 356.473 141.413 356.44C141.474 356.406 141.517 356.357 141.536 356.301C141.554 356.246 141.546 356.187 141.513 356.135C141.479 356.084 141.423 356.043 141.354 356.02Z" fill="#263238"/>
<path d="M183.299 153.68C183.299 153.68 187.269 179.562 180.246 185.455C180.246 185.455 167.754 245.055 163.368 262.226C157.496 284.888 133.887 350.465 133.887 350.465L81.8921 343.781C81.8921 343.781 112.525 258.783 112.775 257.305C114.163 248.931 126.655 190.777 125.975 189.33C119.465 174.546 128.862 153.68 128.862 153.68H183.299Z" fill="#37474F"/>
<path d="M195 153.68C195 153.68 190.045 181.03 180.246 185.455C180.246 185.455 167.754 245.055 163.368 262.226C157.496 284.888 133.887 350.465 133.887 350.465L81.8921 343.781C81.8921 343.781 112.525 258.783 112.775 257.305C114.163 248.931 126.655 190.777 125.975 189.33C119.465 174.546 128.862 153.68 128.862 153.68H195Z" fill="#37474F"/>
<path d="M133.665 342.324C125.975 341.025 128.21 341.268 120.506 340.064C116.745 339.462 91.969 335.534 88.3047 335.523C88.2214 335.523 88.1936 335.65 88.3047 335.671C91.7053 336.727 116.578 340.275 120.354 340.813C128.099 341.869 125.906 341.51 133.651 342.535C133.748 342.545 133.803 342.355 133.665 342.324Z" fill="#263238"/>
<path d="M187.38 182.487C181.902 184 176.608 185.873 171.557 188.084C171.513 188.1 171.478 188.128 171.461 188.162C171.444 188.197 171.446 188.235 171.467 188.269C171.487 188.303 171.524 188.329 171.569 188.342C171.615 188.355 171.665 188.353 171.71 188.338C177.039 186.595 182.467 184.927 187.672 182.963C187.744 182.929 187.797 182.876 187.822 182.814C187.846 182.752 187.84 182.685 187.804 182.626C187.768 182.568 187.705 182.521 187.627 182.496C187.548 182.47 187.461 182.467 187.38 182.487Z" fill="#263238"/>
<path d="M189.018 154.662C189.018 154.524 188.685 154.493 188.685 154.662C188.685 159.477 188.324 163.712 187.797 168.21C187.547 170.322 185.34 181.843 180.579 180.998C179.774 180.861 179.371 180.259 179.191 179.351C179.205 178.153 179.42 176.96 179.829 175.803C180.357 173.395 180.773 170.966 181.051 168.527C181.597 163.983 181.532 159.407 180.857 154.873C180.857 154.842 180.84 154.813 180.812 154.791C180.783 154.769 180.744 154.757 180.704 154.757C180.663 154.757 180.624 154.769 180.596 154.791C180.567 154.813 180.551 154.842 180.551 154.873C180.691 161.175 180.204 167.476 179.094 173.723C178.497 176.722 176.512 181.241 180.648 181.706C184.785 182.171 187.588 174.61 188.074 172.54C189.402 166.637 189.719 160.627 189.018 154.662Z" fill="#263238"/>
<path d="M180.704 181.284C180.279 182.064 179.922 182.865 179.635 183.681C179.325 184.308 179.174 184.975 179.191 185.645C179.191 185.772 179.427 185.782 179.51 185.645C180.011 185.057 180.386 184.412 180.621 183.734C180.982 182.994 181.37 182.255 181.703 181.516C181.724 181.42 181.698 181.322 181.63 181.24C181.563 181.158 181.458 181.097 181.337 181.069C181.215 181.04 181.084 181.046 180.967 181.086C180.851 181.125 180.757 181.196 180.704 181.284Z" fill="#263238"/>
<path d="M132.221 169.636C133.373 169.478 134.997 169.794 140.077 169.53C141.481 169.444 142.874 169.271 144.241 169.013C145.615 168.851 146.922 168.45 148.058 167.841C149.874 166.538 151.353 164.987 152.416 163.268C153.747 161.499 154.773 159.608 155.47 157.64C155.47 157.513 155.734 157.576 155.706 157.693C155.442 158.749 155.29 159.921 154.901 161.019C154.541 162.055 154.077 163.068 153.513 164.05C152.599 165.986 151.057 167.715 149.03 169.076C146.767 170.375 143.617 170.607 140.882 170.755C139.3 170.84 133.082 170.755 132.249 170.037C131.985 169.921 131.999 169.657 132.221 169.636Z" fill="#263238"/>
<path d="M196.555 164.335C195.167 165.074 128.196 153.849 127.932 153.448C127.183 152.392 160.55 101.197 179.663 94.0264C183.827 92.4846 194.084 95.7054 196.208 97.9547C197.526 99.3698 199.067 107.459 199.942 114.133C201.704 127.396 197.762 163.68 196.555 164.335Z" fill="#FFF527"/>
<path d="M178.733 122.644C178.104 121.327 178.104 119.884 178.733 118.568C179.362 119.884 179.362 121.327 178.733 122.644ZM194.792 143.827C194.813 143.131 194.653 142.438 194.32 141.789C193.988 142.438 193.827 143.131 193.848 143.827C193.843 144.519 194.003 145.206 194.32 145.855C194.644 145.208 194.804 144.52 194.792 143.827ZM157.927 142.022C157.945 141.326 157.79 140.635 157.469 139.983C156.839 141.296 156.839 142.736 157.469 144.049C157.789 143.401 157.944 142.713 157.927 142.022ZM162.091 113.964C163.001 113.978 163.907 113.856 164.756 113.605C163.907 113.353 163.001 113.231 162.091 113.245C161.176 113.235 160.267 113.357 159.412 113.605C160.251 113.842 161.14 113.964 162.035 113.964H162.091ZM159.412 157.524C160.327 157.537 161.237 157.415 162.091 157.165C160.36 156.686 158.464 156.686 156.733 157.165C157.569 157.412 158.46 157.534 159.356 157.524H159.412ZM142.228 131.546C142.09 131.757 141.937 131.968 141.77 132.169C142.433 132.141 143.085 132.03 143.7 131.842C143.211 131.69 142.697 131.591 142.173 131.546H142.228ZM194.764 96.8669C194.041 96.8878 193.327 97.002 192.654 97.2049C193.508 97.4578 194.418 97.5798 195.333 97.5639H195.708C195.395 97.3152 195.061 97.0824 194.709 96.8669H194.764ZM177.831 135.485C178.719 135.505 179.604 135.398 180.44 135.168C178.71 134.69 176.813 134.69 175.082 135.168C175.944 135.408 176.859 135.516 177.775 135.485H177.831ZM190.642 158.506C191.557 158.519 192.467 158.397 193.321 158.147C191.587 157.682 189.697 157.682 187.963 158.147C188.799 158.394 189.69 158.516 190.586 158.506H190.642ZM161.633 127.977C161.002 127.475 160.247 127.073 159.412 126.794C159.783 127.428 160.311 128.001 160.966 128.484C161.606 128.977 162.359 129.378 163.187 129.666C162.804 129.027 162.256 128.453 161.577 127.977H161.633ZM179.052 105.03C178.414 104.527 177.655 104.122 176.817 103.837C177.597 105.106 178.938 106.126 180.607 106.719C180.231 106.088 179.704 105.515 179.052 105.03ZM194.931 128.758C194.297 128.259 193.543 127.858 192.71 127.575C193.495 128.839 194.835 129.855 196.499 130.448C196.128 129.814 195.6 129.241 194.945 128.758H194.931ZM194.32 112.517C193.66 112.998 193.127 113.572 192.752 114.206C194.412 113.605 195.75 112.587 196.541 111.324C195.707 111.609 194.953 112.014 194.32 112.517ZM135.746 146.383C135.091 146.865 134.563 147.439 134.192 148.072C135.855 147.483 137.192 146.466 137.967 145.2C137.126 145.483 136.363 145.884 135.719 146.383H135.746ZM175.707 147.84C175.046 148.323 174.518 148.901 174.152 149.54C174.986 149.254 175.74 148.849 176.373 148.347C177.025 147.862 177.552 147.289 177.928 146.657C177.097 146.943 176.344 147.344 175.707 147.84Z" fill="white"/>
<path d="M193.654 103.573C193.446 108.631 193.113 113.678 192.752 118.737C192.391 123.795 191.947 128.821 191.544 133.869C191.142 138.917 190.6 143.965 190.045 149.002L189.212 156.563C188.893 159.076 188.602 161.6 188.241 164.113C188.338 161.579 188.504 159.055 188.629 156.531L189.143 148.949C189.504 143.901 189.962 138.864 190.364 133.816C190.767 128.769 191.308 123.721 191.85 118.684C192.391 113.647 192.932 108.61 193.654 103.573Z" fill="#263238"/>
<path d="M197.179 119.328C197.168 119.516 197.084 119.697 196.936 119.849C196.789 120 196.587 120.115 196.354 120.179C196.121 120.243 195.868 120.252 195.628 120.206C195.388 120.161 195.171 120.062 195.005 119.922C194.839 119.782 194.731 119.608 194.695 119.422C194.66 119.235 194.698 119.045 194.804 118.875C194.911 118.705 195.081 118.563 195.294 118.467C195.507 118.371 195.753 118.325 196 118.335C196.329 118.349 196.637 118.461 196.858 118.647C197.079 118.833 197.195 119.078 197.179 119.328Z" fill="#263238"/>
<path d="M196.055 129.043C196.044 129.231 195.96 129.412 195.813 129.563C195.667 129.715 195.465 129.83 195.233 129.894C195.001 129.958 194.749 129.968 194.509 129.923C194.269 129.878 194.052 129.78 193.885 129.642C193.719 129.503 193.61 129.33 193.572 129.144C193.535 128.959 193.571 128.769 193.675 128.598C193.779 128.428 193.948 128.285 194.159 128.188C194.37 128.09 194.615 128.043 194.861 128.051C195.025 128.056 195.186 128.086 195.335 128.139C195.484 128.192 195.618 128.266 195.729 128.359C195.84 128.451 195.925 128.559 195.981 128.676C196.037 128.794 196.062 128.918 196.055 129.043Z" fill="#263238"/>
<path d="M194.917 138.769C194.91 138.894 194.87 139.016 194.801 139.13C194.731 139.243 194.633 139.345 194.512 139.429C194.391 139.513 194.249 139.579 194.095 139.621C193.94 139.664 193.776 139.683 193.612 139.677C193.448 139.671 193.287 139.64 193.139 139.587C192.99 139.533 192.857 139.458 192.747 139.365C192.637 139.273 192.552 139.164 192.497 139.047C192.441 138.929 192.417 138.804 192.425 138.679C192.434 138.554 192.474 138.432 192.544 138.319C192.615 138.206 192.714 138.105 192.835 138.021C192.957 137.937 193.1 137.872 193.254 137.83C193.409 137.788 193.573 137.77 193.737 137.776C193.901 137.782 194.061 137.812 194.209 137.865C194.357 137.918 194.49 137.993 194.6 138.085C194.71 138.177 194.794 138.285 194.849 138.403C194.903 138.52 194.926 138.645 194.917 138.769Z" fill="#263238"/>
<path d="M193.793 148.505C193.781 148.693 193.697 148.875 193.55 149.026C193.403 149.178 193.2 149.293 192.967 149.356C192.734 149.42 192.481 149.429 192.241 149.384C192.001 149.338 191.784 149.239 191.618 149.099C191.452 148.959 191.345 148.785 191.309 148.599C191.273 148.413 191.311 148.222 191.417 148.052C191.524 147.882 191.694 147.74 191.907 147.644C192.12 147.548 192.366 147.502 192.613 147.513C192.776 147.518 192.937 147.548 193.085 147.601C193.233 147.654 193.366 147.729 193.476 147.821C193.585 147.914 193.67 148.022 193.724 148.139C193.779 148.256 193.802 148.381 193.793 148.505Z" fill="#263238"/>
<path d="M192.668 158.231C192.65 158.482 192.504 158.718 192.26 158.888C192.016 159.058 191.694 159.148 191.364 159.139C191.032 159.127 190.721 159.014 190.499 158.827C190.276 158.64 190.16 158.393 190.177 158.141C190.193 157.889 190.341 157.653 190.587 157.483C190.833 157.314 191.157 157.226 191.489 157.238C191.816 157.255 192.123 157.368 192.343 157.553C192.563 157.738 192.68 157.981 192.668 158.231Z" fill="#263238"/>
<path d="M190.281 104.544C186.117 104.428 181.009 98.451 179.691 94.1847C179.607 93.8996 181.079 91.323 182.689 88.1444C183.646 86.2119 184.66 84.0366 185.465 82.009L201.094 88.6196C199.217 90.9605 197.725 93.4679 196.652 96.0855C196.549 96.3648 196.484 96.6514 196.458 96.9409C196.458 96.9409 196.458 97.0254 196.458 97.0887C196.138 98.7572 194.32 104.681 190.281 104.544Z" fill="#D3766A"/>
<path d="M186.145 82.3682C185.742 85.0187 184.993 94.6494 194.625 96.8459C195.199 96.973 195.783 97.0718 196.374 97.1416C196.386 97.0927 196.386 97.0426 196.374 96.9938C196.403 96.7053 196.463 96.4191 196.555 96.1384C197.636 93.5214 199.132 91.0143 201.01 88.6725L186.145 82.3682Z" fill="#263238"/>
<path d="M185.284 69.3583C182.966 73.9307 184.909 87.6271 188.99 90.8795C194.903 95.5999 205.244 96.6031 210.671 91.0802C215.945 85.7263 213.003 67.9115 208.381 64.9019C201.579 60.4667 188.768 62.6104 185.284 69.3583Z" fill="#D3766A"/>
<path d="M201.746 78.5771C201.746 78.5771 201.649 78.5771 201.663 78.6616C201.815 79.5803 201.801 80.6575 200.747 81.0482C202.093 80.8475 202.093 79.4219 201.746 78.5771Z" fill="#263238"/>
<path d="M200.524 77.6899C198.567 77.6899 198.817 80.7207 200.635 80.689C202.454 80.6573 202.176 77.6583 200.524 77.6899Z" fill="#263238"/>
<path d="M208.478 78.2708C208.478 78.2708 208.575 78.2708 208.589 78.3447C208.589 79.274 208.866 80.3299 209.977 80.5834C208.63 80.5623 208.325 79.2 208.478 78.2708Z" fill="#263238"/>
<path d="M209.491 77.2571C211.434 77.0459 211.837 80.0238 210.032 80.2139C208.228 80.4039 207.853 77.426 209.491 77.2571Z" fill="#263238"/>
<path d="M198.859 76.4016C199.366 76.2651 199.861 76.1064 200.344 75.9264C200.899 75.8106 201.387 75.558 201.732 75.2083C201.812 75.0827 201.837 74.9406 201.802 74.8035C201.767 74.6663 201.674 74.5416 201.538 74.448C201.219 74.3081 200.858 74.2344 200.49 74.2344C200.122 74.2344 199.761 74.3081 199.442 74.448C198.735 74.6323 198.142 75.0082 197.776 75.504C197.714 75.6222 197.697 75.7514 197.727 75.8766C197.758 76.0018 197.834 76.118 197.947 76.2118C198.06 76.3056 198.205 76.3732 198.367 76.4067C198.528 76.4403 198.699 76.4385 198.859 76.4016Z" fill="#263238"/>
<path d="M210.879 75.6731C210.346 75.617 209.818 75.5395 209.297 75.4407C208.719 75.4206 208.166 75.2532 207.728 74.9655C207.619 74.8542 207.56 74.719 207.56 74.5801C207.56 74.4412 207.619 74.306 207.728 74.1947C207.99 73.9985 208.316 73.8588 208.672 73.7902C209.028 73.7215 209.402 73.7262 209.755 73.8039C210.506 73.8732 211.195 74.1561 211.684 74.5959C211.788 74.7013 211.849 74.8273 211.859 74.9586C211.87 75.0899 211.831 75.2207 211.745 75.3351C211.66 75.4494 211.532 75.5423 211.378 75.6024C211.224 75.6624 211.051 75.687 210.879 75.6731Z" fill="#263238"/>
<path d="M200.982 87.2469C201.288 87.4475 201.607 87.7326 202.051 87.7432C202.502 87.7065 202.94 87.6062 203.342 87.4475C203.18 87.6377 202.955 87.7917 202.689 87.8937C202.423 87.9958 202.126 88.0423 201.829 88.0283C201.579 87.9904 201.349 87.8969 201.169 87.7597C200.989 87.6225 200.866 87.4477 200.816 87.2574C200.816 87.2574 200.927 87.2152 200.982 87.2469Z" fill="#263238"/>
<path d="M202.023 84.4167C202.364 84.7678 202.796 85.0616 203.293 85.2797C203.79 85.4977 204.341 85.6353 204.911 85.6839C205.407 85.7419 205.913 85.7419 206.41 85.6839H206.687H206.951C207.014 85.6702 207.07 85.6412 207.11 85.6012C207.151 85.5612 207.172 85.5124 207.173 85.4621C207.18 85.4307 207.18 85.3986 207.173 85.3671V85.2826C207.173 84.5751 206.965 83.498 206.965 83.498C207.312 83.6036 209.102 84.121 209.047 83.7514C208.672 80.5297 207.867 77.3453 206.646 74.2474C206.646 74.1418 206.396 74.1841 206.423 74.2474C206.743 77.2148 207.811 80.1188 208.145 83.0967C207.509 82.9046 206.841 82.7837 206.16 82.7377C206.021 82.7377 206.562 84.8497 206.534 85.1348C205.771 85.2301 204.991 85.2072 204.239 85.0675C203.488 84.9277 202.782 84.6741 202.162 84.3217C202.037 84.2794 201.94 84.3428 202.023 84.4167Z" fill="#263238"/>
<path d="M205.702 85.5361C205.165 86.0121 204.477 86.3756 203.703 86.5921C203.252 86.702 202.766 86.702 202.315 86.5921C201.357 86.3809 201.357 85.705 201.552 85.1348C201.655 84.8291 201.809 84.5346 202.01 84.2583C203.023 84.9808 204.32 85.4298 205.702 85.5361Z" fill="#263238"/>
<path d="M203.703 86.592C203.252 86.702 202.766 86.702 202.315 86.592C201.357 86.3808 201.357 85.705 201.552 85.1348C202.078 85.1477 202.581 85.3006 202.974 85.5669C203.367 85.8332 203.625 86.196 203.703 86.592Z" fill="#F291B8"/>
<path d="M211.726 70.2347C205.993 73.7617 197.193 69.4849 197.193 69.4849C196.784 70.5246 195.943 71.4357 194.798 72.0827C193.652 72.7296 192.263 73.0778 190.836 73.0753C190.836 73.0753 190.475 80.9531 187.769 81.1009C183.605 81.3332 181.245 70.7626 182.328 68.5873C182.773 67.8903 183.405 67.2714 184.181 66.7697C184.958 66.268 185.863 65.8944 186.839 65.6727C187.086 64.377 187.975 63.2021 189.323 62.3886C191.961 60.5828 201.912 62.1985 201.912 62.1985C202.368 61.1758 203.128 60.247 204.133 59.4846C204.374 59.2958 204.662 59.1458 204.98 59.0433C205.299 58.9409 205.641 58.8881 205.986 58.8881C206.332 58.8881 206.674 58.9409 206.992 59.0433C207.311 59.1458 207.599 59.2958 207.839 59.4846C207.377 60.0946 207.106 60.7777 207.048 61.4804C206.798 63.7931 209.255 63.5924 209.019 61.5649C208.97 60.7763 208.551 60.0271 207.839 59.4529C208.908 58.0273 210.837 57.4676 212.114 58.1223C214.432 59.3684 216.528 67.299 211.726 70.2347Z" fill="#263238"/>
<path d="M189.212 80.2562C189.212 80.2562 185.492 75.7154 182.8 76.7081C180.107 77.7007 182.703 84.1001 185.701 85.1561C186.07 85.3044 186.475 85.3947 186.892 85.4218C187.308 85.4489 187.727 85.4121 188.125 85.3136C188.522 85.2151 188.889 85.057 189.205 84.8485C189.521 84.6401 189.778 84.3856 189.962 84.1001L189.212 80.2562Z" fill="#D3766A"/>
<path d="M183.605 78.4927C183.605 78.4927 183.605 78.4927 183.605 78.556C184.563 78.9687 185.396 79.5297 186.051 80.2027C186.706 80.8757 187.168 81.6458 187.408 82.4632C187.293 82.2949 187.132 82.1473 186.936 82.0305C186.74 81.9137 186.513 81.8304 186.271 81.7863C186.028 81.7422 185.776 81.7384 185.532 81.775C185.287 81.8116 185.056 81.8879 184.854 81.9986C184.854 81.9986 184.854 82.1042 184.854 82.0936C185.237 82.0177 185.641 82.0337 186.011 82.1396C186.382 82.2455 186.7 82.436 186.922 82.685C187.294 83.1054 187.606 83.555 187.852 84.0261C187.935 84.174 188.296 84.1106 188.227 83.9416C188.449 81.8191 186.533 78.82 183.605 78.4927Z" fill="#263238"/>
<path d="M196.374 97.152L193.113 103.256L180.093 92.928L176.276 95.9165C176.276 95.9165 187.38 111.947 187.547 111.25L193.404 104.755L197.901 109.676L198.373 99.8553L196.374 97.152Z" fill="#FFF527"/>
<path d="M198.484 103.942C198.484 102.02 198.609 101.83 198.484 99.9611C198.484 99.8977 198.345 99.866 198.317 99.9611C197.679 101.788 197.707 107.353 197.568 109.085C197.332 108.874 193.404 104.745 193.404 104.798C192.418 105.854 187.852 110.553 187.56 110.986C185.798 108.441 179.024 99.1585 176.887 96.7403C176.878 96.7249 176.861 96.7129 176.84 96.7069C176.819 96.701 176.796 96.7016 176.776 96.7086C176.755 96.7156 176.74 96.7284 176.732 96.7443C176.724 96.7601 176.725 96.7777 176.734 96.7931C178.261 99.4648 187.213 111.947 187.366 111.926C189.594 109.744 191.625 107.451 193.446 105.062C194.292 105.938 198.165 110.574 198.206 110.342C198.449 108.214 198.542 106.078 198.484 103.942Z" fill="#263238"/>
<path d="M288.683 165.191L218.177 209.425L253.403 241.924L323.908 197.69L288.683 165.191Z" fill="#FFF527"/>
<path opacity="0.1" d="M288.678 165.19L218.172 209.424L234.756 224.724L305.262 180.49L288.678 165.19Z" fill="black"/>
<path d="M285.156 159.377L211.32 205.7L227.763 220.87L301.599 174.547L285.156 159.377Z" fill="#FFF527"/>
<path d="M254.407 164.145L263.79 172.804L258.432 176.151L253.102 171.231L232.712 184.029L238.042 188.95L232.698 192.308L223.315 183.649L254.407 164.145Z" fill="#263238"/>
<path d="M238.786 207.867L233.978 210.884L241.828 218.127L246.637 215.11L238.786 207.867Z" fill="#263238"/>
<path d="M287.544 177.282L282.736 180.299L290.587 187.541L295.395 184.525L287.544 177.282Z" fill="#263238"/>
<path d="M165.63 107.543C154.068 126.889 151.292 147.84 156.844 152.624C164.756 159.446 192.085 171.03 205.993 174.705C210.074 175.761 220.498 151.42 216.125 150.258C210.851 148.864 181.328 139.54 180.87 139.287C179.913 138.737 179.191 115.083 179.302 109.127C179.496 98.2081 171.904 97.0254 165.63 107.543Z" fill="#D3766A"/>
<path d="M256.683 163.215C256.645 164.016 256.287 164.788 255.657 165.429C255.027 166.071 254.155 166.551 253.157 166.806C254.107 167.957 254.495 169.324 254.254 170.671C253.685 173.026 248.591 173.385 248.591 173.385C249.247 174.738 249.353 176.209 248.896 177.609C248.05 179.826 242.97 180.777 242.97 180.777C242.672 182.265 241.688 183.624 240.194 184.61C236.03 187.113 228.396 185.022 223.538 183.734C218.68 182.445 206.451 175.286 203.939 174.145L214.543 150.301C214.543 150.301 238.528 151.357 243.969 153.469C248.452 155.232 256.669 160.153 256.683 163.215Z" fill="#D3766A"/>
<path d="M253.116 166.362C248.841 163.564 243.719 161.874 238.722 160.026C238.711 160.018 238.698 160.013 238.683 160.009C238.669 160.006 238.654 160.005 238.639 160.007C238.624 160.01 238.61 160.014 238.598 160.021C238.585 160.028 238.576 160.037 238.569 160.047C238.562 160.058 238.559 160.069 238.559 160.08C238.559 160.092 238.562 160.103 238.569 160.114C238.576 160.124 238.586 160.133 238.598 160.14C238.61 160.146 238.624 160.151 238.639 160.153C243.636 162.001 248.077 164.588 252.963 166.584C253.002 166.6 253.047 166.603 253.089 166.593C253.109 166.588 253.128 166.58 253.145 166.569C253.161 166.559 253.175 166.546 253.185 166.531C253.195 166.517 253.201 166.501 253.203 166.484C253.205 166.468 253.203 166.452 253.196 166.436C253.19 166.42 253.18 166.406 253.166 166.393C253.152 166.38 253.135 166.37 253.116 166.362Z" fill="#263238"/>
<path d="M248.619 173.047C247.573 172.476 246.429 172.017 245.218 171.685C243.969 171.262 242.72 170.861 241.456 170.481C238.93 169.699 236.376 168.971 233.795 168.295C233.684 168.295 233.587 168.401 233.711 168.432C236.224 169.203 238.736 170.006 241.207 170.861L244.913 172.17C246.035 172.644 247.221 173.023 248.452 173.3C248.493 173.306 248.536 173.301 248.573 173.287C248.61 173.272 248.641 173.249 248.659 173.221C248.678 173.192 248.684 173.16 248.677 173.129C248.67 173.097 248.649 173.069 248.619 173.047Z" fill="#263238"/>
<path d="M242.9 180.692C241.936 180.207 240.871 179.85 239.749 179.636L236.279 178.58C233.961 177.894 231.643 177.197 229.339 176.468C229.228 176.468 229.131 176.563 229.256 176.606C231.56 177.376 233.864 178.168 236.196 178.918C237.334 179.298 238.486 179.657 239.624 179.974C240.628 180.381 241.718 180.649 242.845 180.766C242.855 180.765 242.866 180.762 242.875 180.758C242.884 180.753 242.892 180.747 242.897 180.74C242.902 180.733 242.906 180.725 242.906 180.716C242.907 180.708 242.905 180.7 242.9 180.692Z" fill="#263238"/>
<path d="M215.14 149.72L195.236 174.071C195.236 174.071 155.997 157.006 153.971 151.103C151.944 145.2 155.026 123.341 163.812 109.486C172.598 95.6316 180.19 96.941 179.816 112.57C179.441 128.199 180.926 138.748 181.398 138.97C181.87 139.192 215.14 149.72 215.14 149.72Z" fill="#FFF527"/>
<path d="M178.733 122.644C178.104 121.327 178.104 119.884 178.733 118.568C179.362 119.884 179.362 121.327 178.733 122.644ZM194.764 143.278L193.918 143.014C193.874 143.284 193.851 143.555 193.848 143.827C193.843 144.519 194.003 145.206 194.32 145.855C194.644 145.208 194.804 144.52 194.792 143.827C194.792 143.616 194.778 143.468 194.764 143.278ZM157.927 142.022C157.945 141.326 157.79 140.635 157.469 139.983C156.84 141.296 156.84 142.736 157.469 144.049C157.789 143.401 157.944 142.713 157.927 142.022ZM175.096 162.086C174.772 162.736 174.612 163.428 174.624 164.124C174.624 164.24 174.624 164.356 174.624 164.472L175.471 164.905C175.492 164.645 175.492 164.384 175.471 164.124C175.525 163.429 175.398 162.732 175.096 162.075V162.086ZM162.035 113.256H161.619C161.494 113.478 161.383 113.71 161.272 113.932H162.035C162.946 113.947 163.851 113.825 164.7 113.573C163.849 113.332 162.943 113.221 162.035 113.246V113.256ZM160.8 156.922L161.452 157.323C161.646 157.283 161.836 157.234 162.021 157.175C161.63 157.049 161.22 156.96 160.8 156.911V156.922ZM177.775 135.495C178.683 135.518 179.588 135.407 180.44 135.168C178.71 134.69 176.813 134.69 175.082 135.168C175.944 135.408 176.859 135.516 177.775 135.485V135.495ZM190.586 158.516C191.501 158.53 192.411 158.408 193.265 158.157C191.532 157.693 189.641 157.693 187.908 158.157C188.762 158.407 189.672 158.525 190.586 158.506V158.516ZM192.766 172.244C192.132 171.745 191.378 171.344 190.545 171.062C190.907 171.688 191.425 172.254 192.072 172.73L194.098 173.638C193.754 173.11 193.305 172.625 192.766 172.202V172.244ZM161.577 128.019C160.946 127.518 160.192 127.116 159.356 126.836C159.727 127.47 160.255 128.044 160.911 128.526C161.551 129.019 162.303 129.42 163.132 129.709C162.771 129.058 162.242 128.469 161.577 127.977V128.019ZM179.135 105.135L179.066 105.083C178.428 104.58 177.669 104.175 176.831 103.889C177.21 104.525 177.742 105.102 178.4 105.59C178.7 105.814 179.02 106.022 179.357 106.213C179.302 105.79 179.219 105.431 179.135 105.093V105.135ZM208.644 151.99C208.007 151.495 207.254 151.093 206.423 150.807C206.799 151.442 207.332 152.016 207.992 152.497C208.623 152.999 209.377 153.4 210.213 153.68C209.84 153.032 209.307 152.444 208.644 151.948V151.99ZM175.707 147.84C175.046 148.323 174.518 148.901 174.152 149.54C174.986 149.255 175.74 148.849 176.373 148.347C177.025 147.862 177.552 147.289 177.928 146.657C177.097 146.943 176.344 147.344 175.707 147.84Z" fill="white"/>
<path d="M206.423 149.181C206.423 149.107 206.326 149.033 206.257 149.097C200.437 155.266 195.062 161.671 190.156 168.284C190.156 168.358 190.253 168.432 190.323 168.369C196.142 162.2 201.517 155.794 206.423 149.181Z" fill="#263238"/>
<path d="M166.38 159.847C162.963 158.208 159.825 156.253 157.038 154.028C155.483 152.957 154.439 151.523 154.068 149.952C153.853 148.466 153.797 146.968 153.901 145.475C154.055 139.052 154.985 132.654 156.677 126.361C157.653 122.866 158.867 119.412 160.314 116.012C160.314 115.949 160.217 115.928 160.189 116.012C158.887 118.475 157.77 120.992 156.844 123.552C156.983 121.991 157.233 120.436 157.594 118.895C157.594 118.832 157.469 118.8 157.455 118.895C157.142 119.916 156.906 120.949 156.747 121.989C156.65 122.781 156.594 123.573 156.566 124.365C155.292 128.016 154.314 131.722 153.638 135.464C153.049 138.719 152.729 141.999 152.68 145.285C152.557 146.859 152.622 148.439 152.874 150.005C153.167 151.387 153.982 152.675 155.22 153.711C158.454 156.246 162.203 158.368 166.324 159.995C166.345 159.992 166.365 159.985 166.381 159.975C166.397 159.964 166.408 159.95 166.414 159.934C166.42 159.919 166.42 159.902 166.414 159.887C166.408 159.871 166.396 159.857 166.38 159.847Z" fill="#263238"/>
<path d="M199.303 144.577C193.751 142.623 188.199 140.828 182.508 139.075C182.249 139.007 182.002 138.915 181.772 138.801C181.596 138.662 181.46 138.496 181.377 138.313C181.293 138.131 181.262 137.937 181.287 137.745C181.217 137.174 181.162 136.615 181.106 136.045C180.981 134.862 180.87 133.69 180.759 132.507C180.565 130.194 180.426 127.882 180.273 125.569C180.273 125.453 180.273 125.326 180.273 125.21C180.565 123.732 180.884 122.243 181.037 120.754C181.037 120.737 181.028 120.721 181.012 120.709C180.997 120.697 180.976 120.69 180.954 120.69C180.931 120.69 180.91 120.697 180.895 120.709C180.879 120.721 180.87 120.737 180.87 120.754C180.579 121.873 180.384 123.024 180.218 124.165C180.065 121.968 179.926 119.782 179.788 117.586H179.704C179.51 122.581 179.704 127.554 180.135 132.539C180.246 133.753 180.357 134.978 180.482 136.192C180.551 136.805 180.607 137.417 180.69 138.03C180.693 138.35 180.808 138.663 181.023 138.938C181.402 139.24 181.882 139.459 182.411 139.572L184.784 140.332L189.212 141.726C192.557 142.782 195.916 143.764 199.317 144.714C199.345 144.767 199.414 144.672 199.303 144.577Z" fill="#263238"/>
</svg>
