<svg width="389" height="360" viewBox="0 0 389 360" fill="none" xmlns="http://www.w3.org/2000/svg">
<path d="M355.725 165.089C355.725 165.089 355.398 165.009 354.815 164.901C353.987 164.749 353.137 164.727 352.302 164.837C351.071 164.999 349.911 165.469 348.948 166.197C347.782 167.096 346.963 168.322 346.614 169.689L346.474 170.208L346.257 169.718C345.681 168.417 344.694 167.308 343.425 166.536C342.386 165.907 341.192 165.533 339.955 165.449C338.805 165.394 337.654 165.528 336.555 165.845C336.822 165.689 337.113 165.572 337.419 165.499C338.243 165.259 339.107 165.159 339.97 165.204C341.253 165.278 342.493 165.663 343.565 166.32C344.911 167.112 345.958 168.272 346.56 169.639H346.202V169.603C346.576 168.159 347.461 166.871 348.715 165.945C349.566 165.324 350.561 164.894 351.622 164.689C352.684 164.484 353.782 164.51 354.83 164.765C355.146 164.825 355.448 164.935 355.725 165.089Z" fill="#E0E0E0"/>
<path d="M65.8265 122.681C65.8265 122.681 65.4998 122.602 64.9163 122.494C64.0886 122.341 63.2389 122.319 62.4033 122.429C61.1715 122.588 60.0111 123.059 59.0502 123.79C57.8837 124.689 57.0646 125.914 56.7162 127.282V127.318L56.5761 127.836L56.3583 127.346C55.7827 126.046 54.7955 124.936 53.5264 124.164C52.4881 123.535 51.294 123.161 50.0565 123.077C48.9068 123.022 47.7558 123.156 46.6566 123.473C46.9028 123.318 47.173 123.199 47.458 123.12C48.2824 122.88 49.1469 122.78 50.0098 122.825C51.3152 122.874 52.5828 123.244 53.682 123.898C55.0263 124.692 56.0725 125.851 56.6773 127.217H56.3194V127.181C56.6935 125.737 57.5779 124.449 58.8323 123.523C59.6852 122.905 60.6829 122.482 61.7452 122.287C62.8074 122.092 63.9043 122.13 64.9474 122.4C65.255 122.449 65.5519 122.544 65.8265 122.681Z" fill="#E0E0E0"/>
<path d="M267.087 107.812C266.829 108.123 266.551 108.419 266.255 108.698C265.5 109.501 264.818 110.361 264.216 111.268C262.21 114.256 261.158 117.708 261.182 121.226V121.348H260.809C260.227 117.899 258.494 114.704 255.853 112.212C254.739 111.203 253.526 110.295 252.228 109.497C252.228 109.497 252.336 109.497 252.531 109.62C252.725 109.742 252.998 109.843 253.309 110.052C254.282 110.624 255.187 111.29 256.009 112.039C258.759 114.529 260.561 117.778 261.143 121.298H260.77V121.176C260.746 117.599 261.855 114.095 263.96 111.096C264.587 110.192 265.309 109.348 266.115 108.576C266.395 108.295 266.644 108.1 266.799 107.964C266.887 107.9 266.984 107.85 267.087 107.812Z" fill="#E0E0E0"/>
<path d="M294.201 280.346C281.947 283.032 272.596 294.336 272.985 306C265.135 297.994 250.78 296.359 241.087 302.4C231.393 308.441 227.526 321.314 232.529 331.085C220.929 322.704 202.062 325.03 193.232 335.923C192.222 332.478 190.348 329.301 187.763 326.652C185.178 324.002 181.954 321.954 178.353 320.674C174.752 319.394 170.876 318.918 167.038 319.284C163.201 319.651 159.512 320.849 156.269 322.783C154.176 310.637 143.58 300.125 130.595 297.346C117.61 294.566 103.139 299.707 95.4916 309.766C92.245 306.826 88.3103 304.619 83.9929 303.315C79.6755 302.01 75.0914 301.644 70.5963 302.244C66.1012 302.845 61.816 304.395 58.0731 306.776C54.3302 309.157 51.2303 312.303 49.0139 315.972L56.8795 318.319C64.063 319.611 70.773 322.574 76.3779 326.929C81.9827 331.283 86.298 336.886 88.9175 343.21C92.5467 339.537 97.079 336.728 102.13 335.021C107.182 333.314 112.603 332.76 117.936 333.404C123.268 334.048 128.354 335.873 132.763 338.723C137.171 341.573 140.772 345.364 143.261 349.776H203.828C218.906 349.661 230.412 350.41 244.354 349.776C249.862 331.826 275.217 315.871 294.271 321.962C296.289 315.167 300.242 308.998 305.716 304.099C311.19 299.201 317.985 295.752 325.391 294.113C319.991 283.73 306.322 277.682 294.201 280.346Z" fill="#EBEBEB"/>
<path d="M325.912 293.983L325.422 294.084C325.484 294.199 325.554 294.314 325.609 294.429L325.912 293.983Z" fill="#EBEBEB"/>
<path d="M169.371 260.69C169.837 257.573 165.076 255.002 161.505 254.736C159.793 254.613 158.027 254.851 156.409 254.333C152.908 253.202 151.516 249.019 148.1 247.687C145.548 246.686 142.607 247.579 140.133 248.731C137.659 249.883 135.216 251.33 132.447 251.496C130.043 251.64 127.429 250.812 125.328 251.899C123.772 252.713 122.94 254.383 121.493 255.369C120.045 256.356 118.233 256.536 116.482 256.629C114.732 256.723 112.911 256.73 111.316 257.407C109.721 258.084 108.399 259.646 108.726 261.245L169.371 260.69Z" fill="#EBEBEB"/>
<path d="M339.262 85.2117C339.815 81.4965 334.159 78.4509 329.926 78.1341C327.896 77.9829 325.787 78.2637 323.873 77.6445C319.711 76.3053 318.046 71.3301 313.985 69.7245C310.951 68.5365 307.458 69.5949 304.517 70.9629C301.576 72.3309 298.659 74.0589 295.375 74.2533C292.512 74.4261 289.408 73.4397 286.903 74.7357C285.043 75.7005 284.063 77.6877 282.344 78.8613C280.624 80.0349 278.454 80.2509 276.384 80.3517C274.315 80.4525 272.136 80.4813 270.238 81.2877C268.34 82.0941 266.768 83.9445 267.165 85.8453L339.262 85.2117Z" fill="#EBEBEB"/>
<path d="M117.735 65.8367C118.318 61.9271 112.359 58.7087 107.877 58.3703C105.738 58.2119 103.513 58.5143 101.49 57.8663C97.1021 56.4263 95.3516 51.2063 91.0726 49.5359C87.875 48.2831 84.1873 49.3991 81.0909 50.8391C77.9944 52.2791 74.9213 54.1007 71.4514 54.3095C68.4406 54.4895 65.1652 53.4527 62.5278 54.8135C60.5594 55.8287 59.5325 57.9311 57.7197 59.1335C55.907 60.3359 53.6352 60.5735 51.4413 60.7103C49.2473 60.8471 46.96 60.8399 44.9605 61.6895C42.9611 62.5391 41.3039 64.4975 41.7163 66.4991L117.735 65.8367Z" fill="#EBEBEB"/>
<path d="M353.57 214.704C354.348 209.434 346.319 205.099 340.282 204.624C337.395 204.408 334.408 204.818 331.677 203.904C325.764 202.003 323.407 194.933 317.634 192.679C313.324 190.994 308.36 192.492 304.175 194.443C299.989 196.394 295.866 198.842 291.19 199.116C287.129 199.361 282.717 197.964 279.162 199.8C276.517 201.168 275.124 203.998 272.681 205.661C270.238 207.324 267.181 207.634 264.217 207.821C261.252 208.008 258.187 208.001 255.487 209.146C252.788 210.29 250.555 212.926 251.115 215.626L353.57 214.704Z" fill="#F5F5F5"/>
<path d="M127.195 177.25C127.911 172.476 120.629 168.552 115.167 168.149C112.553 167.954 109.846 168.322 107.387 167.522C102.035 165.794 99.8951 159.401 94.6748 157.356C90.7848 155.837 86.2724 157.19 82.4913 158.954C78.7102 160.718 74.9602 162.936 70.7357 163.188C67.0558 163.404 63.0646 162.144 59.8437 163.807C57.4475 165.046 56.1871 167.602 53.9776 169.114C51.7681 170.626 48.9984 170.899 46.3143 171.036C43.6302 171.173 40.8683 171.194 38.4098 172.231C35.9513 173.268 33.9441 175.658 34.4498 178.099L127.195 177.25Z" fill="#EBEBEB"/>
<path d="M367.994 307.634C367.994 307.634 367.605 307.246 366.881 306.475C366.516 306.094 366.103 305.597 365.489 305.078L364.555 304.222C364.204 303.885 363.833 303.568 363.443 303.271L362.159 302.249C361.716 301.882 361.186 301.529 360.673 301.183C359.638 300.427 358.409 299.743 357.11 298.958C354.044 297.279 350.771 295.947 347.361 294.991C343.127 293.788 338.712 293.221 334.283 293.314L332.455 293.364L330.596 293.537L329.654 293.623L328.713 293.774L326.807 294.091C324.169 294.638 321.595 295.419 319.12 296.424C316.489 297.516 313.982 298.847 311.636 300.398C309.161 302.064 306.873 303.956 304.805 306.043C300.352 310.581 297.126 316.032 295.391 321.948L295.344 322.114L295.173 322.056C290.472 320.643 285.457 320.37 280.609 321.264C275.496 322.184 270.603 323.944 266.162 326.462C261.482 329.066 257.28 332.342 253.714 336.168C249.959 340.111 247.155 344.751 245.49 349.776L245.451 349.898H245.311C237.64 350.258 229.751 350.179 221.637 350.035C217.599 349.97 213.514 349.906 209.391 349.891H196.943H144.218H144.101L144.047 349.79C141.361 345.111 137.427 341.146 132.618 338.27C128.035 335.479 122.773 333.789 117.307 333.353C112.247 333.01 107.168 333.72 102.444 335.432C97.7195 337.144 93.4697 339.814 90.0068 343.246L89.8201 343.426L89.7267 343.195C87.4651 337.746 83.9228 332.829 79.356 328.802C77.2422 326.946 74.9448 325.278 72.494 323.82C70.1768 322.471 67.7284 321.326 65.1808 320.4C62.7841 319.537 60.3077 318.876 57.782 318.427L55.9537 318.175L55.059 318.06L54.1566 317.995L52.3905 317.866H50.6478C46.4311 317.837 42.2341 318.4 38.1998 319.536C34.9478 320.426 31.8156 321.656 28.8638 323.201C27.6112 323.921 26.4286 324.547 25.4328 325.246C24.5012 325.839 23.6028 326.476 22.7409 327.154C21.9629 327.722 21.325 328.327 20.7415 328.802C20.2895 329.19 19.8585 329.599 19.45 330.026C18.7264 330.746 18.3452 331.085 18.3452 331.085C18.3452 331.085 18.7031 330.71 19.4111 329.998C19.8369 329.546 20.2888 329.115 20.7648 328.709C21.3405 328.226 21.9474 327.614 22.7565 327.038C23.6154 326.354 24.5112 325.71 25.4406 325.109C26.4364 324.389 27.6112 323.762 28.8638 323.042C31.8128 321.477 34.9451 320.228 38.1998 319.32C42.2326 318.174 46.429 317.596 50.6478 317.606H52.3905L54.1721 317.736L55.0746 317.801L55.9771 317.916L57.8132 318.168C60.3564 318.611 62.8511 319.266 65.2664 320.126C67.8407 321.063 70.3151 322.22 72.6574 323.582C75.1278 325.045 77.4436 326.721 79.5738 328.586C84.1731 332.655 87.7391 337.617 90.0146 343.116L89.7345 343.066C93.2326 339.597 97.5251 336.896 102.297 335.162C107.07 333.428 112.201 332.704 117.315 333.043C122.843 333.479 128.167 335.184 132.805 338.004C137.671 340.911 141.653 344.921 144.373 349.654L144.194 349.553H196.912H209.36C213.491 349.553 217.575 349.632 221.613 349.704C229.697 349.848 237.601 349.927 245.257 349.567L245.078 349.704C246.763 344.629 249.598 339.946 253.395 335.966C256.993 332.098 261.238 328.787 265.967 326.16C270.446 323.622 275.382 321.851 280.539 320.933C285.445 320.031 290.52 320.313 295.274 321.754L295.056 321.862C296.814 315.9 300.075 310.41 304.571 305.842C306.658 303.746 308.964 301.848 311.457 300.175C313.822 298.614 316.35 297.275 319.003 296.179C321.511 295.175 324.116 294.394 326.783 293.846L328.705 293.537L329.654 293.386L330.603 293.299L332.47 293.134L334.307 293.083C338.759 293.002 343.196 293.585 347.447 294.811C350.866 295.784 354.147 297.133 357.219 298.829C358.518 299.621 359.747 300.319 360.774 301.082C361.295 301.464 361.817 301.802 362.26 302.162L363.544 303.199C363.934 303.496 364.303 303.816 364.649 304.157L365.574 305.021C366.064 305.475 366.524 305.956 366.951 306.461C367.628 307.224 367.994 307.634 367.994 307.634Z" fill="#263238"/>
<path d="M192.944 36.5976L197.005 44.2296C197.15 44.4957 197.363 44.7255 197.624 44.8997C197.885 45.0739 198.188 45.1873 198.507 45.2304L207.602 46.4544C207.968 46.5055 208.311 46.6501 208.594 46.8718C208.876 47.0936 209.086 47.3838 209.2 47.7099C209.314 48.036 209.327 48.385 209.239 48.7177C209.15 49.0505 208.963 49.3538 208.699 49.5936L202.124 55.5336C201.892 55.7404 201.718 55.997 201.617 56.2807C201.517 56.5645 201.493 56.8667 201.549 57.1608L203.058 65.52C203.121 65.8587 203.08 66.2067 202.94 66.525C202.8 66.8432 202.567 67.119 202.267 67.3211C201.967 67.5233 201.612 67.6438 201.241 67.669C200.871 67.6943 200.501 67.6233 200.172 67.464L192.034 63.504C191.748 63.3659 191.43 63.2937 191.108 63.2937C190.786 63.2937 190.468 63.3659 190.182 63.504L182.052 67.4856C181.723 67.6449 181.353 67.7159 180.982 67.6906C180.612 67.6654 180.257 67.5449 179.957 67.3427C179.657 67.1406 179.424 66.8648 179.284 66.5466C179.144 66.2283 179.103 65.8803 179.166 65.5416L180.722 57.1608C180.775 56.8667 180.751 56.565 180.65 56.2816C180.55 55.9982 180.377 55.7415 180.146 55.5336L173.564 49.5936C173.299 49.3533 173.113 49.0494 173.024 48.7162C172.936 48.3829 172.95 48.0334 173.065 47.7072C173.18 47.3809 173.391 47.0908 173.674 46.8695C173.958 46.6482 174.302 46.5044 174.669 46.4544L183.764 45.2304C184.082 45.188 184.384 45.0748 184.644 44.9004C184.904 44.7261 185.115 44.4959 185.257 44.2296L189.326 36.5976C189.486 36.2777 189.741 36.0067 190.061 35.8168C190.382 35.6268 190.755 35.5259 191.135 35.5259C191.516 35.5259 191.889 35.6268 192.209 35.8168C192.53 36.0067 192.785 36.2777 192.944 36.5976Z" fill="#FFFE4E"/>
<path d="M177.384 41.6374C177.314 41.7094 172.148 37.2742 165.862 31.7302C159.576 26.1862 154.534 21.6502 154.612 21.5566C154.69 21.463 159.879 25.9198 166.173 31.4638C172.467 37.0078 177.493 41.5654 177.384 41.6374Z" fill="#FFFE4E"/>
<path d="M166.632 46.3319C166.632 46.4327 162.19 46.2671 156.736 45.9647C151.282 45.6623 146.855 45.3239 146.855 45.2447C146.855 45.1655 151.298 45.3023 156.759 45.6119C162.221 45.9215 166.632 46.2311 166.632 46.3319Z" fill="#FFFE4E"/>
<path d="M183.452 32.6665C182.381 30.8929 181.428 29.0608 180.597 27.1801C179.643 25.3489 178.809 23.4663 178.1 21.5425C179.179 23.3131 180.135 25.1456 180.963 27.0289C181.918 28.8586 182.749 30.7415 183.452 32.6665Z" fill="#FFFE4E"/>
<path d="M190.338 8.20801C190.447 8.20801 190.54 13.248 190.54 19.4112C190.54 25.5744 190.447 30.6216 190.338 30.6216C190.229 30.6216 190.135 25.5816 190.135 19.4112C190.135 13.2408 190.229 8.20801 190.338 8.20801Z" fill="#FFFE4E"/>
<path d="M204.093 21.751C203.36 23.6106 202.502 25.4261 201.525 27.187C200.664 28.9984 199.682 30.7586 198.584 32.4574C199.318 30.597 200.178 28.7813 201.16 27.0214C202.017 25.2094 202.996 23.4491 204.093 21.751Z" fill="#FFFE4E"/>
<path d="M226.32 25.416C226.383 25.5024 220.446 29.4336 213.094 34.2C205.742 38.9664 199.674 42.768 199.612 42.6816C199.549 42.5952 205.478 38.664 212.838 33.8904C220.197 29.1168 226.25 25.3296 226.32 25.416Z" fill="#FFFE4E"/>
<path d="M226.904 41.3423C224.771 42.3133 222.581 43.1738 220.345 43.9199C218.157 44.7608 215.918 45.4821 213.639 46.0799C215.765 45.1243 217.947 44.2782 220.174 43.5455C222.369 42.6891 224.616 41.9534 226.904 41.3423Z" fill="#FFFE4E"/>
<path d="M175.167 56.6857C175.167 56.7793 167.488 59.3281 157.934 62.3665C148.38 65.4049 140.6 67.7953 140.569 67.6801C140.538 67.5649 148.248 65.0377 157.802 61.9921C167.356 58.9465 175.136 56.5849 175.167 56.6857Z" fill="#FFFE4E"/>
<path d="M235.983 64.5335C235.983 64.6343 229.168 62.9567 220.82 60.7895C212.472 58.6223 205.727 56.7863 205.758 56.6855C205.789 56.5847 212.581 58.2623 220.929 60.4295C229.277 62.5967 236.014 64.4327 235.983 64.5335Z" fill="#FFFE4E"/>
<path d="M168.826 77.5439C170.269 76.1414 171.804 74.8237 173.424 73.5983C174.958 72.2754 176.585 71.0487 178.294 69.9263C176.852 71.3333 175.313 72.6536 173.689 73.8791C172.154 75.1952 170.53 76.4193 168.826 77.5439Z" fill="#FFFE4E"/>
<path d="M190.983 95.1769C190.875 95.1769 190.82 89.0209 190.859 81.4393C190.898 73.8577 191.03 67.6945 191.139 67.7017C191.248 67.7089 191.31 73.8505 191.264 81.4393C191.217 89.0281 191.092 95.1769 190.983 95.1769Z" fill="#FFFE4E"/>
<path d="M213.95 79.0847C212.27 77.8737 210.675 76.5655 209.173 75.1679C207.556 73.8644 206.034 72.4647 204.614 70.9775C206.294 72.1886 207.89 73.4968 209.391 74.8943C211.008 76.1978 212.53 77.5976 213.95 79.0847Z" fill="#FFFE4E"/>
<path d="M230.592 53.1358L230.662 54.3742C230.664 54.4181 230.678 54.4608 230.702 54.4984C230.727 54.5361 230.761 54.5676 230.802 54.5902L231.938 55.2382C231.985 55.2635 232.024 55.301 232.05 55.3462C232.075 55.3914 232.086 55.4424 232.081 55.4932C232.077 55.544 232.056 55.5924 232.022 55.6327C231.988 55.673 231.943 55.7035 231.891 55.7206L230.638 56.1598C230.595 56.1755 230.557 56.2008 230.527 56.2334C230.497 56.2661 230.477 56.3051 230.467 56.347L230.148 57.5566C230.135 57.605 230.108 57.6491 230.069 57.6838C230.03 57.7186 229.982 57.7426 229.929 57.7531C229.877 57.7636 229.822 57.7602 229.771 57.7433C229.72 57.7263 229.676 57.6966 229.642 57.6574L228.802 56.6998C228.773 56.6653 228.735 56.638 228.691 56.6205C228.648 56.6029 228.6 56.5955 228.553 56.599L227.215 56.6926C227.162 56.6965 227.108 56.6865 227.06 56.6637C227.012 56.6409 226.972 56.6062 226.945 56.5635C226.917 56.5208 226.903 56.4718 226.904 56.4221C226.905 56.3724 226.921 56.3239 226.951 56.2822L227.682 55.2382C227.704 55.2007 227.716 55.1586 227.716 55.1158C227.716 55.0729 227.704 55.0308 227.682 54.9934L227.168 53.8414C227.15 53.7953 227.146 53.7456 227.156 53.6974C227.166 53.6493 227.19 53.6045 227.225 53.5677C227.259 53.5309 227.305 53.5035 227.355 53.4883C227.405 53.4731 227.459 53.4707 227.511 53.4814L228.81 53.8054C228.856 53.8155 228.904 53.8155 228.95 53.8055C228.996 53.7955 229.038 53.7757 229.074 53.7478L230.094 52.9486C230.133 52.9092 230.185 52.882 230.242 52.8705C230.299 52.8589 230.358 52.8636 230.412 52.8838C230.466 52.9041 230.512 52.939 230.544 52.984C230.576 53.029 230.593 53.0819 230.592 53.1358Z" fill="#FFFE4E"/>
<path d="M239.181 40.0824L239.795 40.6728C239.816 40.6933 239.841 40.7086 239.87 40.7174C239.899 40.7262 239.929 40.7282 239.959 40.7232L240.83 40.5936C240.865 40.5888 240.901 40.593 240.934 40.6058C240.967 40.6186 240.995 40.6395 241.016 40.6663C241.037 40.693 241.05 40.7246 241.053 40.7575C241.055 40.7904 241.048 40.8234 241.032 40.8528L240.612 41.5728C240.597 41.5982 240.589 41.6267 240.589 41.6556C240.589 41.6846 240.597 41.7131 240.612 41.7384L241.017 42.4584C241.031 42.4882 241.037 42.5212 241.033 42.5537C241.029 42.5862 241.015 42.6171 240.994 42.643C240.972 42.6689 240.943 42.6889 240.91 42.7008C240.877 42.7127 240.842 42.716 240.807 42.7104L239.943 42.5664C239.913 42.5606 239.882 42.5614 239.852 42.5689C239.822 42.5764 239.795 42.5904 239.772 42.6096L239.15 43.1928C239.124 43.2156 239.092 43.2314 239.058 43.2387C239.023 43.2459 238.987 43.2442 238.953 43.2338C238.92 43.2235 238.89 43.2048 238.867 43.1798C238.844 43.1548 238.828 43.1244 238.823 43.092L238.706 42.2784C238.702 42.2507 238.691 42.2243 238.674 42.2016C238.656 42.1789 238.632 42.1608 238.605 42.1488L237.827 41.7744C237.794 41.761 237.765 41.7389 237.745 41.7107C237.725 41.6826 237.715 41.6497 237.715 41.616C237.715 41.5824 237.725 41.5495 237.745 41.5214C237.765 41.4932 237.794 41.4711 237.827 41.4576L238.605 41.1048C238.634 41.0945 238.66 41.077 238.679 41.0541C238.698 41.0313 238.71 41.004 238.714 40.9752L238.846 40.176C238.852 40.1428 238.868 40.1117 238.892 40.0863C238.916 40.061 238.947 40.0424 238.982 40.0326C239.017 40.0229 239.054 40.0224 239.089 40.0312C239.124 40.04 239.156 40.0577 239.181 40.0824Z" fill="#FFFE4E"/>
<path d="M140.515 30.2831L141.122 30.8735C141.141 30.8952 141.167 30.9114 141.195 30.9203C141.224 30.9292 141.255 30.9304 141.285 30.9239L142.156 30.7943C142.192 30.7895 142.228 30.7937 142.26 30.8065C142.293 30.8193 142.322 30.8402 142.343 30.867C142.363 30.8937 142.376 30.9253 142.379 30.9582C142.382 30.9911 142.375 31.0241 142.359 31.0535L141.938 31.7735C141.923 31.7989 141.916 31.8274 141.916 31.8563C141.916 31.8853 141.923 31.9137 141.938 31.9391L142.343 32.6591C142.358 32.6889 142.363 32.7219 142.359 32.7544C142.355 32.7869 142.342 32.8178 142.32 32.8437C142.298 32.8696 142.27 32.8896 142.237 32.9015C142.204 32.9134 142.168 32.9167 142.133 32.9111L141.269 32.7671C141.239 32.7628 141.207 32.765 141.177 32.7738C141.148 32.7825 141.121 32.7975 141.098 32.8175L140.476 33.3935C140.45 33.4163 140.418 33.4321 140.384 33.4394C140.349 33.4466 140.313 33.4449 140.279 33.4345C140.246 33.4242 140.216 33.4055 140.193 33.3805C140.17 33.3555 140.155 33.3251 140.149 33.2927L140.04 32.4935C140.036 32.4651 140.024 32.4379 140.007 32.4142C139.989 32.3905 139.966 32.3708 139.939 32.3567L139.161 31.9895C139.13 31.9741 139.104 31.9512 139.086 31.9234C139.068 31.8955 139.059 31.8636 139.059 31.8311C139.059 31.7987 139.068 31.7668 139.086 31.7389C139.104 31.711 139.13 31.6882 139.161 31.6727L139.939 31.3199C139.968 31.3072 139.993 31.288 140.012 31.2642C140.031 31.2403 140.043 31.2125 140.048 31.1831L140.18 30.3767C140.186 30.3435 140.202 30.3124 140.226 30.287C140.25 30.2617 140.281 30.243 140.316 30.2333C140.351 30.2235 140.388 30.223 140.423 30.2318C140.458 30.2407 140.49 30.2584 140.515 30.2831Z" fill="#FFFE4E"/>
<path d="M63.1036 204.358C63.1036 204.358 62.7768 204.278 62.1855 204.17C61.3609 204.015 60.5132 203.993 59.6804 204.106C58.4462 204.265 57.2832 204.736 56.3194 205.466C55.1574 206.366 54.339 207.588 53.9854 208.951V208.994L53.8376 209.506L53.6275 209.016C53.0489 207.717 52.059 206.61 50.7878 205.841C49.7489 205.212 48.5555 204.836 47.318 204.746C46.1678 204.693 45.0164 204.829 43.9181 205.15C44.185 204.994 44.4763 204.877 44.7817 204.804C45.6064 204.565 46.4703 204.463 47.3335 204.502C48.6261 204.56 49.8804 204.928 50.9745 205.567C52.3198 206.362 53.3682 207.521 53.9776 208.886H53.6197V208.843C53.9909 207.409 54.8634 206.128 56.1016 205.2C56.9565 204.578 57.9564 204.148 59.0219 203.946C60.0874 203.743 61.1892 203.773 62.24 204.034C62.5451 204.097 62.8369 204.207 63.1036 204.358Z" fill="#263238"/>
<path d="M100.759 201.6C100.396 202.042 100.003 202.463 99.584 202.86C98.513 203.996 97.545 205.213 96.6899 206.496C93.8513 210.729 92.3626 215.619 92.3953 220.601V220.781L91.8585 220.824C91.0445 215.933 88.5959 211.401 84.8565 207.864C83.2815 206.437 81.5649 205.149 79.7295 204.019C79.8796 204.057 80.0217 204.118 80.1496 204.199C80.546 204.382 80.9305 204.587 81.301 204.811C82.681 205.616 83.962 206.557 85.121 207.619C89.0235 211.147 91.5796 215.754 92.4031 220.745L91.8741 220.781V220.601C91.8339 215.529 93.4029 210.557 96.3865 206.302C97.2747 205.011 98.2988 203.805 99.444 202.702C99.8408 202.306 100.222 202.039 100.409 201.845C100.595 201.65 100.751 201.6 100.759 201.6Z" fill="#263238"/>
<path d="M293.213 158.803C293.213 158.839 292.559 158.595 291.353 158.35C289.654 158.006 287.903 157.943 286.18 158.163C283.612 158.474 281.188 159.439 279.178 160.949C276.729 162.799 275.002 165.341 274.261 168.185V168.264L274.113 168.783L273.903 168.293C272.706 165.593 270.649 163.295 268.006 161.705C265.852 160.405 263.374 159.639 260.809 159.48C259.08 159.368 257.344 159.516 255.666 159.919C254.476 160.207 253.854 160.459 253.838 160.431C253.977 160.348 254.126 160.28 254.282 160.229C254.72 160.056 255.169 159.91 255.628 159.79C257.727 159.218 259.935 159.069 262.102 159.352C264.269 159.635 266.346 160.344 268.192 161.431C270.907 163.047 273.022 165.394 274.253 168.156H273.895V168.077C274.653 165.158 276.434 162.553 278.96 160.668C280.688 159.395 282.711 158.509 284.87 158.079C287.029 157.65 289.267 157.688 291.408 158.191C291.871 158.293 292.326 158.426 292.769 158.587C292.922 158.651 293.07 158.723 293.213 158.803Z" fill="#263238"/>
<path d="M344.957 132.524C344.957 132.524 344.592 132.43 343.93 132.308C342.999 132.127 342.04 132.1 341.098 132.228C339.706 132.404 338.394 132.935 337.31 133.762C335.974 134.767 335.034 136.151 334.633 137.7V137.744L334.493 138.262L334.275 137.772C333.628 136.298 332.509 135.043 331.07 134.172C329.907 133.465 328.568 133.044 327.18 132.948C326.235 132.881 325.285 132.951 324.364 133.157C323.71 133.308 323.36 133.438 323.352 133.409C323.426 133.357 323.507 133.316 323.593 133.287C323.83 133.184 324.075 133.098 324.325 133.028C325.486 132.703 326.708 132.613 327.91 132.765C329.111 132.917 330.263 133.306 331.288 133.906C332.801 134.796 333.979 136.099 334.657 137.636H334.299V137.592C334.718 135.971 335.709 134.524 337.115 133.481C338.073 132.78 339.193 132.294 340.388 132.062C341.582 131.829 342.819 131.857 344 132.142C344.266 132.202 344.526 132.282 344.778 132.38C344.846 132.419 344.906 132.467 344.957 132.524Z" fill="#263238"/>
<path d="M311.122 121.767C311.122 121.767 310.772 122.141 310.126 122.811C309.231 123.762 308.419 124.778 307.699 125.849C305.319 129.392 304.07 133.485 304.097 137.657V137.808H303.716C303.349 135.564 302.559 133.398 301.382 131.407C300.428 129.784 299.234 128.291 297.834 126.972C296.884 126.074 295.842 125.264 294.722 124.553C294.3 124.311 293.893 124.049 293.5 123.768C293.62 123.808 293.734 123.859 293.843 123.919C294.061 124.042 294.403 124.193 294.8 124.438C295.952 125.113 297.022 125.903 297.99 126.792C301.234 129.748 303.363 133.594 304.058 137.758H303.685V137.607C303.658 133.37 304.963 129.217 307.442 125.655C308.187 124.585 309.042 123.584 309.994 122.667C310.321 122.328 310.609 122.105 310.772 121.947C310.881 121.874 310.998 121.814 311.122 121.767Z" fill="#263238"/>
<path d="M158.953 142.078H224.064C226.569 142.078 226.569 138.478 224.064 138.478H158.953C156.448 138.478 156.44 142.078 158.953 142.078Z" fill="#455A64"/>
<path d="M161.202 73.2598H156.534V349.725H161.202V73.2598Z" fill="#455A64"/>
<path d="M160.96 349.726C160.851 349.726 160.758 287.87 160.758 211.586C160.758 135.302 160.851 73.4399 160.96 73.4399C161.069 73.4399 161.163 135.281 161.163 211.586C161.163 287.892 161.046 349.726 160.96 349.726Z" fill="#263238"/>
<path d="M158.953 114.105H224.064C226.569 114.105 226.569 110.505 224.064 110.505H158.953C156.448 110.505 156.44 114.105 158.953 114.105Z" fill="#455A64"/>
<path d="M226.351 73.8213H221.683V349.718H226.351V73.8213Z" fill="#455A64"/>
<path d="M221.8 314.964C221.683 314.964 221.598 261.086 221.598 194.637C221.598 128.188 221.683 74.2964 221.8 74.2964C221.917 74.2964 222.002 128.167 222.002 194.637C222.002 261.108 221.909 314.964 221.8 314.964Z" fill="#263238"/>
<path d="M158.868 326.347H224.017C226.515 326.347 226.523 322.747 224.017 322.747H158.868C156.37 322.747 156.362 326.347 158.868 326.347Z" fill="#455A64"/>
<path d="M160.268 270.54H221.473C223.978 270.54 223.978 266.94 221.473 266.94H160.268C157.763 266.94 157.755 270.54 160.268 270.54Z" fill="#455A64"/>
<path d="M158.868 231.537H224.017C226.515 231.537 226.523 227.938 224.017 227.938H158.868C156.37 227.938 156.362 231.537 158.868 231.537Z" fill="#455A64"/>
<path d="M158.868 200.772H224.017C226.515 200.772 226.523 197.172 224.017 197.172H158.868C156.37 197.172 156.362 200.772 158.868 200.772Z" fill="#455A64"/>
<path d="M158.868 170.733H224.017C226.515 170.733 226.523 167.133 224.017 167.133H158.868C156.37 167.133 156.362 170.733 158.868 170.733Z" fill="#455A64"/>
<path d="M159.49 299.297H221.411C223.916 299.297 223.916 295.697 221.411 295.697H159.49C156.985 295.697 156.985 299.297 159.49 299.297Z" fill="#455A64"/>
<path d="M212.495 117.864L208.543 109.721C208.543 109.721 208.753 105.401 208.084 104.997C207.166 104.493 206.94 104.911 206.683 106.365L206.318 108.525C206.318 108.525 204.808 105.48 203.4 105.357C202.443 105.271 202.171 106.797 202.171 106.797C202.171 106.797 200.576 105.422 199.448 105.753C198.32 106.085 198.67 107.51 198.67 107.51C198.51 107.409 198.327 107.344 198.135 107.318C197.943 107.293 197.748 107.308 197.563 107.363C197.379 107.418 197.21 107.511 197.07 107.635C196.931 107.759 196.823 107.911 196.756 108.079C196.095 109.569 198.997 111.83 199.44 112.831C200.366 114.919 198.398 114.991 198.398 114.991C198.398 114.991 193.348 114.393 193.605 115.596C193.862 116.798 195.55 116.791 196.849 116.913C197.923 117.014 201.984 117.95 203.299 118.253C203.575 118.319 203.838 118.426 204.077 118.569L207.096 121.449L212.495 117.864Z" fill="#FFBE9D"/>
<path d="M210.449 304.891L210.278 325.8L198.087 325.937L198.211 304.992L210.449 304.891Z" fill="#FFFE4E"/>
<path d="M204.264 325.08C204.155 325.08 204.178 320.501 204.264 314.856C204.349 309.211 204.575 304.639 204.676 304.639C204.777 304.639 204.762 309.218 204.637 314.863C204.513 320.508 204.365 325.08 204.264 325.08Z" fill="#263238"/>
<path d="M198.125 319.248C198.201 319.08 198.309 318.926 198.444 318.794C198.77 318.405 199.137 318.048 199.541 317.729C200.136 317.241 200.804 316.836 201.525 316.526C202.782 315.977 204.196 315.815 205.56 316.064C206.924 316.313 208.165 316.959 209.103 317.909C209.46 318.28 209.756 318.697 209.982 319.147C210.078 319.305 210.141 319.479 210.169 319.658C209.796 319.1 209.374 318.57 208.909 318.074C207.707 316.949 206.074 316.307 204.365 316.289C202.653 316.319 201.005 316.894 199.697 317.916C198.678 318.672 198.18 319.284 198.125 319.248Z" fill="#263238"/>
<path opacity="0.3" d="M198.094 312.559L198.079 314.863H210.449V312.559H198.094Z" fill="black"/>
<path d="M198.087 325.936L198.102 323.755L210.293 323.762L210.278 325.8L198.087 325.936Z" fill="#E0E0E0"/>
<path d="M184.876 250.639L184.713 270.698L173.019 270.835L173.136 250.733L184.876 250.639Z" fill="#FFFE4E"/>
<path d="M178.94 270C178.847 270 178.862 265.608 178.979 260.193C179.096 254.779 179.275 250.387 179.368 250.387C179.461 250.387 179.454 254.779 179.329 260.2C179.205 265.622 179.041 270 178.94 270Z" fill="#263238"/>
<path d="M173.058 264.406C173.058 264.406 173.144 264.24 173.362 263.974C173.677 263.601 174.031 263.259 174.42 262.951C174.989 262.484 175.629 262.096 176.318 261.799C177.525 261.27 178.883 261.113 180.193 261.353C181.503 261.593 182.695 262.216 183.592 263.131C183.932 263.485 184.215 263.883 184.433 264.312C184.528 264.465 184.589 264.634 184.612 264.809C184.261 264.269 183.857 263.761 183.406 263.29C182.252 262.208 180.683 261.592 179.041 261.576C177.404 261.604 175.826 262.153 174.575 263.131C173.587 263.858 173.105 264.449 173.058 264.406Z" fill="#263238"/>
<path opacity="0.3" d="M173.019 257.99L173.012 260.201H184.876V257.99H173.019Z" fill="black"/>
<path d="M173.019 270.835L173.027 268.74H184.728L184.713 270.698L173.019 270.835Z" fill="#E0E0E0"/>
<path d="M187.109 116.15L187.42 116.078C187.914 115.309 188.608 114.666 189.438 114.207C190.267 113.748 191.208 113.488 192.174 113.45C194.123 113.404 196.015 114.056 197.456 115.272C198.46 116.1 199.253 117.122 200.257 117.936C200.731 118.377 201.307 118.713 201.942 118.917C202.577 119.122 203.254 119.19 203.921 119.116C204.077 119.57 203.143 119.836 203.221 120.304C203.252 120.416 203.318 120.516 203.411 120.592C203.504 120.667 203.619 120.715 203.743 120.729C204.1 120.754 204.459 120.754 204.816 120.729C204.996 120.716 205.175 120.756 205.328 120.842C205.482 120.929 205.602 121.058 205.672 121.212C205.703 121.373 205.687 121.54 205.625 121.694C205.286 123.127 204.554 124.456 203.501 125.553C202.97 126.095 202.304 126.509 201.562 126.76C200.819 127.011 200.021 127.091 199.238 126.993C198.021 126.68 196.905 126.096 195.986 125.294L190.384 121.14C189.495 120.535 188.695 119.826 188.004 119.03C187.307 118.217 186.985 117.182 187.109 116.15Z" fill="#263238"/>
<path d="M188.276 116.438C187.523 115.852 186.629 115.443 185.67 115.243C185.191 115.148 184.696 115.143 184.215 115.228C183.734 115.314 183.276 115.488 182.869 115.74C182.185 116.301 181.607 116.962 181.157 117.698C180.93 118.065 180.626 118.386 180.263 118.642C179.899 118.899 179.484 119.084 179.041 119.189C178.882 119.189 178.728 119.234 178.598 119.318C178.387 119.498 178.535 119.851 178.792 119.959C179.062 120.042 179.354 120.042 179.625 119.959C179.176 120.445 178.556 120.769 177.874 120.874C177.962 121.175 178.174 121.432 178.465 121.59C178.757 121.748 179.103 121.793 179.43 121.716C179.128 122.686 178.956 123.688 178.917 124.697C178.884 125.716 179.258 126.71 179.967 127.49C180.745 128.304 182.106 128.758 182.464 129.823" fill="#263238"/>
<path d="M196.126 152.02L181.562 151.848L183.188 140.328C183.188 140.328 182.192 140.126 182.13 135.129C182.067 130.132 181.811 121.629 181.811 121.629C184.88 120.411 188.244 119.974 191.557 120.363C194.87 120.751 198.01 121.952 200.654 123.84L201.432 124.408L196.126 152.02Z" fill="#FFBE9D"/>
<path d="M199.767 130.579C199.86 130.536 203.47 129.557 203.354 132.977C203.237 136.397 199.557 135.583 199.557 135.482C199.557 135.382 199.767 130.579 199.767 130.579Z" fill="#FFBE9D"/>
<path d="M182.441 129.859C182.348 129.823 179.057 129.002 179.181 132.422C179.306 135.842 182.978 135.029 182.978 134.928C182.978 134.827 182.441 129.859 182.441 129.859Z" fill="#FFBE9D"/>
<path d="M200.957 130.197C200.413 133.077 200.522 134.561 200.008 136.476C199.23 139.507 197.581 141.825 194.632 143.337C191.684 144.849 187.708 144.821 185.187 142.761C183.411 141.491 182.241 139.628 181.928 137.57C181.663 135.41 180.978 131.378 180.963 129.218C180.963 125.316 181.08 121.817 181.08 121.817L193.107 119.793L199.954 123.566L200.957 130.197Z" fill="#263238"/>
<path d="M188.548 145.065C189.232 145.252 189.948 145.311 190.656 145.238C191.365 145.165 192.05 144.962 192.672 144.64C192.672 144.554 191.754 144.813 190.618 144.928C189.482 145.044 188.564 144.972 188.548 145.065Z" fill="#263238"/>
<path d="M200.382 135.065C200.732 132.127 200.957 128.772 201.455 125.705C201.775 124.39 201.949 123.049 201.977 121.701C201.868 120.528 201.518 120.888 200.957 119.822C200.257 118.497 197.589 117.612 196.025 117.324C194.461 117.036 194.267 115.776 193.069 116.748C192.634 116.127 192.003 115.645 191.262 115.368C190.521 115.091 189.706 115.031 188.927 115.198C188.148 115.365 187.444 115.75 186.91 116.3C186.376 116.85 186.038 117.54 185.942 118.274C185.509 117.896 184.954 117.66 184.363 117.603C183.771 117.545 183.175 117.669 182.667 117.955C182.159 118.242 181.766 118.675 181.55 119.187C181.333 119.7 181.305 120.265 181.469 120.794C181.037 120.867 180.632 121.038 180.29 121.29C179.947 121.543 179.677 121.871 179.504 122.243C179.33 122.616 179.259 123.022 179.297 123.426C179.334 123.83 179.479 124.22 179.718 124.56C180.278 125.352 181.274 125.791 181.896 126.547C182.229 126.991 182.42 127.513 182.448 128.053C182.475 128.593 182.338 129.129 182.052 129.6" fill="#263238"/>
<path d="M184.876 134.453C184.704 135.47 184.85 136.512 185.296 137.455C185.637 138.436 186.271 139.307 187.125 139.968C186.535 139.132 186.014 138.256 185.569 137.347C185.258 136.4 185.027 135.432 184.876 134.453Z" fill="#455A64"/>
<path d="M183.258 131.961C182.876 132.819 182.794 133.766 183.024 134.669C183.151 135.589 183.589 136.449 184.277 137.124C183.89 136.314 183.583 135.472 183.359 134.611C183.246 133.732 183.212 132.846 183.258 131.961Z" fill="#455A64"/>
<path d="M198.39 120.139C197.518 118.767 196.208 117.68 194.64 117.028C193.852 116.717 192.989 116.605 192.138 116.704C191.288 116.802 190.481 117.108 189.801 117.59" fill="#263238"/>
<path d="M198.11 127.706C198.048 127.706 198.11 127.31 198.227 126.698C198.4 125.919 198.494 125.125 198.507 124.329C198.509 123.545 198.32 122.769 197.954 122.061C197.666 121.529 197.378 121.248 197.425 121.205C197.472 121.161 197.838 121.377 198.203 121.925C198.678 122.649 198.926 123.482 198.919 124.329C198.91 125.155 198.771 125.975 198.507 126.763C198.328 127.368 198.164 127.721 198.11 127.706Z" fill="#455A64"/>
<path d="M195.62 128.837C195.701 128.293 195.863 127.762 196.103 127.26C196.219 126.72 196.418 126.199 196.694 125.712C196.829 126.273 196.763 126.859 196.507 127.382C196.204 128.268 195.722 128.88 195.62 128.837Z" fill="#455A64"/>
<path d="M184.067 127.958C183.682 127.626 183.398 127.207 183.242 126.741C182.755 125.643 182.628 124.436 182.877 123.271C183.134 122.109 183.751 121.041 184.651 120.197C184.992 119.822 185.431 119.535 185.927 119.361C185.965 119.419 185.475 119.729 184.876 120.384C184.08 121.226 183.535 122.247 183.298 123.345C183.06 124.443 183.138 125.579 183.522 126.641C183.81 127.44 184.129 127.929 184.067 127.958Z" fill="#455A64"/>
<path d="M197.223 115.243C196.808 115.134 196.408 114.979 196.033 114.782C195.129 114.368 194.139 114.142 193.131 114.12C192.639 114.11 192.15 114.197 191.697 114.374C191.244 114.552 190.836 114.816 190.501 115.149C190.248 115.456 190.022 115.781 189.824 116.121C189.811 115.912 189.843 115.702 189.92 115.504C189.996 115.306 190.114 115.124 190.268 114.969C190.565 114.604 190.948 114.307 191.388 114.098C191.928 113.852 192.521 113.724 193.123 113.724C194.198 113.741 195.25 114.019 196.173 114.53C196.569 114.702 196.926 114.944 197.223 115.243Z" fill="#455A64"/>
<path d="M180.768 118.411C180.722 118.411 180.807 118.015 181.196 117.504C181.714 116.845 182.453 116.364 183.298 116.136C184.143 115.908 185.045 115.946 185.864 116.244C186.479 116.481 186.775 116.762 186.743 116.798C186.41 116.722 186.083 116.626 185.763 116.51C184.992 116.302 184.172 116.302 183.4 116.51C182.628 116.718 181.937 117.125 181.406 117.684C181.01 118.08 180.831 118.44 180.768 118.411Z" fill="#455A64"/>
<path d="M184.736 130.975C184.736 130.924 185.327 130.78 186.292 130.377C187.6 129.83 188.797 129.08 189.832 128.16L190.524 127.533L190.143 128.361C189.907 128.885 189.732 129.43 189.622 129.988C189.567 130.269 189.521 130.622 189.622 130.672C189.723 130.723 190.034 130.6 190.314 130.42C191.245 129.866 192.079 129.183 192.788 128.397L193.426 127.677L193.138 128.556L192.322 131.004L192.042 130.852C192.934 130.024 193.717 129.101 194.376 128.102C194.293 128.417 194.153 128.716 193.963 128.988C193.501 129.754 192.925 130.457 192.252 131.076L191.8 131.493L191.979 130.917C192.205 130.197 192.454 129.34 192.757 128.455L193.107 128.628C192.381 129.467 191.518 130.196 190.548 130.788C190.394 130.879 190.236 130.963 190.073 131.04C189.967 131.097 189.846 131.128 189.723 131.128C189.6 131.128 189.479 131.097 189.373 131.04C189.285 130.966 189.217 130.874 189.177 130.771C189.136 130.668 189.123 130.558 189.14 130.449C189.14 130.269 189.186 130.132 189.21 129.974C189.33 129.389 189.523 128.819 189.785 128.275L190.104 128.476C189.021 129.415 187.75 130.149 186.362 130.636C185.845 130.833 185.295 130.948 184.736 130.975Z" fill="#455A64"/>
<path d="M191.777 117.792C191.651 117.589 191.483 117.412 191.283 117.27C191.082 117.128 190.854 117.024 190.61 116.964C190.118 116.859 189.608 116.859 189.116 116.964C187.9 117.177 186.801 117.772 186.004 118.648C185.825 118.843 185.662 119.152 185.856 119.368C185.973 119.456 186.119 119.502 186.269 119.498C188.085 119.637 189.913 119.576 191.715 119.318" fill="#263238"/>
<path d="M167.993 218.196C168.235 218.599 171.183 227.729 177.687 229.277C184.191 230.825 204.458 229.795 205.011 229.277C205.563 228.758 211.523 225.72 214.401 219.413C217.28 213.105 196.608 202.097 196.608 202.097L167.993 218.196Z" fill="#263238"/>
<path d="M217.84 220.666L218.019 225.756C218.019 226.541 217.918 230.486 217.824 231.264L215.296 262.879C215.047 262.786 213.576 282.319 213.452 289.174C213.327 295.769 212.728 313.711 212.728 313.711H196.095L194.974 284.004L194.274 251.849L193.247 229.349L217.84 220.666Z" fill="#263238"/>
<path d="M167.993 213.163C167.993 213.163 168.359 213.667 168.273 220.665C168.211 226.015 171.72 258.991 171.72 258.991L185.919 258.595L188.758 225.569L167.993 213.163Z" fill="#263238"/>
<path d="M194.555 229.745C194.163 229.826 193.765 229.877 193.364 229.896C192.586 229.975 191.481 230.069 190.097 230.148C186.483 230.416 182.846 230.22 179.29 229.565C175.672 228.918 172.42 227.101 170.118 224.438C169.45 223.624 168.925 222.718 168.562 221.753C168.463 221.491 168.383 221.224 168.32 220.954C168.274 220.766 168.258 220.666 168.274 220.666C168.748 221.962 169.447 223.178 170.343 224.266C172.656 226.816 175.845 228.554 179.376 229.19C182.898 229.838 186.494 230.08 190.081 229.91L193.356 229.774C193.754 229.729 194.155 229.72 194.555 229.745Z" fill="#455A64"/>
<path d="M211.39 229.111C210.805 229.326 210.194 229.475 209.57 229.557C206.591 230.085 203.562 230.326 200.53 230.277C199.901 230.295 199.272 230.247 198.655 230.133C199.274 230.036 199.902 229.995 200.53 230.011C201.681 229.968 203.276 229.896 205.034 229.752C206.792 229.608 208.38 229.428 209.523 229.277C210.138 229.164 210.764 229.108 211.39 229.111Z" fill="#455A64"/>
<path d="M210.908 234.9C210.101 234.898 209.296 234.823 208.504 234.676C207.034 234.475 205.011 234.122 202.801 233.618C200.592 233.114 198.623 232.552 197.215 232.099C196.441 231.887 195.691 231.607 194.975 231.264C195.767 231.405 196.547 231.6 197.309 231.847C198.732 232.236 200.708 232.754 202.902 233.287C205.096 233.82 207.111 234.172 208.566 234.446C209.358 234.542 210.141 234.694 210.908 234.9Z" fill="#455A64"/>
<path d="M206.948 124.142C206.337 122.984 205.651 121.861 204.894 120.78C204.894 120.78 209.484 116.28 212.246 116.417L214.868 119.772L206.948 124.142Z" fill="white"/>
<path d="M228.685 138.29C227.682 135.41 215.101 118.598 215.101 118.598C210.433 118.598 205.937 123.804 205.937 123.804L214.876 141.228L205.478 149.234L216.089 160.833C216.089 160.833 222.788 153.079 224.795 150.271C229.269 144 229.681 141.185 228.685 138.29Z" fill="#FFFE4E"/>
<path opacity="0.3" d="M167.589 217.267C167.589 217.267 168.639 223.747 174.49 225.655C180.34 227.563 193.854 225.655 193.854 225.655L195.41 220.939L197.091 226.505L217.995 224.028L217.7 219.607L195.542 211.089L167.589 217.267Z" fill="black"/>
<path d="M213.172 195.703C212.729 193.413 212.161 192.254 212.052 190.872C211.717 186.746 211.74 176.853 212.052 175.586C212.448 173.923 216.082 160.833 216.082 160.833L214.845 150.696L199.409 148.32L198.328 146.016C198.328 146.016 188.027 143.546 181.515 146.786L180.387 149.249L176.365 150.185C175.758 150.408 172.607 151.221 170.219 151.819C168.902 152.143 167.678 152.73 166.632 153.538C165.586 154.347 164.745 155.357 164.166 156.499C163.755 157.327 163.394 158.176 163.084 159.041C162.018 161.964 155.888 178.121 155.616 183.045C155.297 188.805 160.805 189 164.174 188.265C167.542 187.531 171.23 180.561 171.23 180.561L173.346 194.198C173.037 196.06 172.544 197.891 171.876 199.67C169.822 204.854 166.865 214.884 166.865 214.884C168.017 218.225 172.203 223.524 174.396 224.244C176.59 224.964 191.256 224.381 191.256 224.381L195.581 213.761L199.573 224.928L220.384 221.925L213.172 195.703Z" fill="#FFFE4E"/>
<path d="M195.558 191.772C195.613 191.858 192.617 193.694 188.867 195.862C186.634 197.228 184.328 198.489 181.959 199.642C184.113 198.173 186.346 196.805 188.65 195.545C190.882 194.179 193.188 192.92 195.558 191.772Z" fill="#263238"/>
<path d="M190.081 197.374C190.135 197.46 186.969 199.418 182.962 201.751C178.956 204.084 175.696 205.898 175.633 205.812C175.571 205.726 178.745 203.767 182.752 201.434C186.759 199.102 190.019 197.28 190.081 197.374Z" fill="#263238"/>
<path d="M206.536 182.109C205.961 183.447 205.113 184.669 204.038 185.709C203.065 186.826 201.865 187.755 200.506 188.445C200.428 188.359 202.062 187.214 203.735 185.465C205.407 183.715 206.427 182.052 206.536 182.109Z" fill="#263238"/>
<path d="M206.948 183.931C206.787 184.438 206.552 184.923 206.248 185.371C205.591 186.489 204.853 187.564 204.038 188.589C203.22 189.606 202.326 190.568 201.362 191.469C200.993 191.874 200.56 192.226 200.078 192.513C199.993 192.434 201.821 190.72 203.712 188.337C205.602 185.954 206.847 183.873 206.948 183.931Z" fill="#263238"/>
<path d="M207.438 201.6C207.558 200.946 207.738 200.303 207.975 199.678C208.341 198.504 208.823 196.877 209.282 195.055C209.741 193.234 210.06 191.585 210.309 190.375C210.398 189.718 210.541 189.068 210.737 188.431C210.768 189.097 210.719 189.763 210.589 190.418C210.373 191.999 210.066 193.569 209.671 195.12C209.282 196.68 208.807 198.22 208.247 199.735C208.049 200.381 207.777 201.006 207.438 201.6Z" fill="#263238"/>
<path d="M215.101 159.242C214.993 159.3 213.608 157.082 211.515 154.612C209.422 152.143 207.446 150.35 207.531 150.292C208.045 150.595 208.511 150.96 208.916 151.38C209.962 152.325 210.937 153.335 211.834 154.404C212.733 155.471 213.554 156.591 214.292 157.759C214.632 158.218 214.904 158.717 215.101 159.242Z" fill="#263238"/>
<path d="M218.439 154.116C217.55 152.951 216.504 151.896 215.327 150.977C214.077 150.152 212.717 149.479 211.281 148.975C211.749 148.968 212.212 149.052 212.643 149.22C214.78 149.886 216.607 151.207 217.824 152.964C218.111 153.306 218.32 153.698 218.439 154.116Z" fill="#263238"/>
<path d="M173.323 194.17C173.214 194.17 171.961 186.732 170.538 177.53C169.114 168.329 168.04 160.848 168.157 160.834C168.274 160.819 169.511 168.271 170.942 177.473C172.374 186.674 173.432 194.148 173.323 194.17Z" fill="#263238"/>
<path d="M199.627 148.32C198.68 148.341 197.732 148.317 196.787 148.248C195.029 148.183 192.609 148.154 189.933 148.248C187.257 148.341 184.853 148.622 183.118 148.845C182.184 149.005 181.241 149.118 180.294 149.184C180.531 149.089 180.779 149.019 181.033 148.975C181.507 148.867 182.208 148.73 183.071 148.586C185.334 148.21 187.621 147.97 189.918 147.866C192.212 147.76 194.512 147.786 196.803 147.945C197.682 148.01 198.359 148.082 198.88 148.147C199.136 148.175 199.387 148.233 199.627 148.32Z" fill="#263238"/>
<g opacity="0.3">
<path d="M171.284 181.051C170.46 175.291 169.324 169.531 168.499 163.771C166.251 169.437 167.488 176.126 171.284 181.051Z" fill="black"/>
</g>
<g opacity="0.3">
<path d="M214.728 141.005C216.188 139.72 218.052 138.898 220.05 138.658C220.517 138.563 221.001 138.56 221.47 138.649C221.94 138.739 222.383 138.918 222.773 139.176C222.858 139.234 222.928 139.31 222.975 139.397C223.022 139.485 223.046 139.582 223.045 139.68C223.022 139.775 222.968 139.861 222.89 139.927C222.812 139.993 222.714 140.035 222.609 140.047C222.401 140.087 222.187 140.087 221.979 140.047C219.591 139.651 217 140.299 214.736 141.106" fill="black"/>
</g>
<g opacity="0.3">
<path d="M181.173 149.306C183.178 149.762 185.259 149.86 187.303 149.594C190.934 149.301 194.549 148.865 198.149 148.284C192.359 147.559 186.473 147.864 180.807 149.184" fill="black"/>
</g>
<g opacity="0.3">
<path d="M180.496 203.241C188.73 201.09 196.123 196.797 201.798 190.872C195.278 194.68 186.837 199.051 180.496 203.241Z" fill="black"/>
</g>
<path d="M219.769 140.148C218.841 140.112 217.911 140.179 217 140.35C216.123 140.642 215.29 141.034 214.518 141.516C214.479 141.516 214.65 141.221 215.055 140.897C215.585 140.474 216.209 140.165 216.883 139.99C217.559 139.814 218.267 139.775 218.96 139.874C219.489 139.961 219.785 140.105 219.769 140.148Z" fill="#263238"/>
<path d="M143.533 131.818L136.368 132.12C134.054 134.673 131.014 136.576 127.592 137.614C125.182 138.339 122.638 138.609 120.113 138.408C117.587 138.207 115.131 137.539 112.89 136.443C110.649 135.347 108.668 133.846 107.066 132.029C105.463 130.212 104.271 128.115 103.56 125.863C102.043 121.274 102.514 116.318 104.873 112.044C107.232 107.77 111.295 104.513 116.202 102.96C118.613 102.234 121.156 101.963 123.682 102.165C126.207 102.366 128.664 103.035 130.905 104.131C133.146 105.228 135.126 106.73 136.727 108.549C138.328 110.367 139.519 112.465 140.227 114.718C141.5 118.571 141.382 122.704 139.892 126.49L143.533 131.818Z" fill="white"/>
<path d="M143.533 131.818L143.277 131.465L142.561 130.435L139.822 126.504H139.962C139.954 126.512 139.945 126.518 139.934 126.523C139.923 126.527 139.912 126.529 139.9 126.529C139.888 126.529 139.877 126.527 139.866 126.523C139.855 126.518 139.846 126.512 139.838 126.504C139.826 126.489 139.82 126.472 139.82 126.454C139.82 126.436 139.826 126.418 139.838 126.403C140.924 123.574 141.26 120.544 140.818 117.569C140.526 115.657 139.901 113.802 138.966 112.075C136.792 107.928 132.936 104.743 128.238 103.212C125.605 102.363 122.801 102.07 120.03 102.355C117.086 102.68 114.262 103.626 111.775 105.12C109.184 106.684 107.046 108.813 105.551 111.319C104.017 113.781 103.139 116.545 102.992 119.383C102.829 122.086 103.307 124.79 104.392 127.303C105.382 129.593 106.882 131.664 108.795 133.382C110.708 135.099 112.991 136.423 115.494 137.268C119.68 138.667 124.269 138.637 128.432 137.182C131.488 136.108 134.2 134.334 136.313 132.027C136.336 132.02 136.361 132.02 136.384 132.027L141.682 131.861L143.067 131.818H143.549H143.105L141.752 131.897L136.391 132.178H136.454C134.341 134.533 131.612 136.348 128.526 137.448C124.305 138.959 119.638 139.012 115.378 137.599C112.822 136.748 110.491 135.406 108.536 133.661C106.581 131.916 105.047 129.808 104.034 127.476C102.916 124.91 102.422 122.147 102.587 119.383C102.682 117.955 102.943 116.541 103.365 115.164C104.288 112.352 105.884 109.768 108.033 107.604C109.108 106.557 110.309 105.627 111.612 104.832C114.138 103.303 117.01 102.332 120.007 101.995C122.728 101.725 125.481 102 128.078 102.803C130.674 103.605 133.053 104.916 135.053 106.647C136.796 108.159 138.223 109.955 139.262 111.946C140.194 113.705 140.814 115.591 141.098 117.533C141.535 120.557 141.166 123.635 140.025 126.497L139.869 126.425C139.877 126.417 139.887 126.411 139.897 126.407C139.908 126.402 139.92 126.4 139.931 126.4C139.943 126.4 139.954 126.402 139.965 126.407C139.976 126.411 139.985 126.417 139.993 126.425C141.16 128.182 142.055 129.535 142.678 130.464L143.347 131.487C143.471 131.71 143.533 131.818 143.533 131.818Z" fill="#263238"/>
<path d="M115.829 117.375L121.539 110.671L127.25 117.288L115.829 117.375Z" fill="#FFFE4E"/>
<path d="M124.355 129.629L119.151 129.665L118.987 116.287L124.184 116.251L124.355 129.629Z" fill="#FFFE4E"/>
</svg>
